<mxfile host="app.diagrams.net" modified="2024-02-24T23:29:12.593Z" agent="Mozilla/5.0 (Macintosh; Intel Mac OS X 10_15_7) AppleWebKit/537.36 (KHTML, like Gecko) Chrome/120.0.0.0 Safari/537.36" etag="pciOfOMnj_dGeX-uNmsW" version="22.1.18" type="github">
  <diagram id="9fnjXT7nlAm7Ix4f8WDv" name="Page-1">
    <mxGraphModel dx="725" dy="756" grid="0" gridSize="10" guides="1" tooltips="1" connect="1" arrows="1" fold="1" page="1" pageScale="1" pageWidth="500" pageHeight="170" background="#EFF1F3" math="0" shadow="0">
      <root>
        <mxCell id="0" />
        <mxCell id="1" parent="0" />
        <mxCell id="YSpOYTgw5d68OkFlZB_1-9" value="" style="shape=image;verticalLabelPosition=bottom;labelBackgroundColor=default;verticalAlign=top;aspect=fixed;imageAspect=0;image=data:image/png,iVBORw0KGgoAAAANSUhEUgAAAgAAAAIACAYAAAD0eNT6AAAABHNCSVQICAgIfAhkiAAAAAlwSFlzAAAJgwAACYMB+KbFBgAAABl0RVh0U29mdHdhcmUAd3d3Lmlua3NjYXBlLm9yZ5vuPBoAACAASURBVHic7N13eBTl2gbwe3Y3m56QXmghoSb03gULCCjIsXexgL3Xox7bsZzzWY56FHvviiKIYKM3KVICoaVQQgrpIWWzbb4/YDmhJzvv7MzO3r/r4lIhefaRQJ5733nnHUmWZRAREVFgMWndABEREfkeAwAREVEAYgAgIiIKQAwAREREAYgBgIiIKAAxABAREQUgBgAiIqIAxABAREQUgBgAiIiIAhADABERUQBiACAiIgpADABEREQBiAGAiIgoADEAEBERBSAGACIiogBk0boBSZIkAJFgGCEiMhoZQL0sy06tG6HjSbIsq/8ikpQK4GwAHQCkAEht9s9kAEGqN0FERFpwAygDUHT4R3Gzf18qy/I2DXsLaKoFAEmSegKYcvjHQACSKi9ERET+LBfAj4d/rJRl2aVxPwFDaACQJKkrgFsATAaQLqwwEREFgnIA8wB8KMvyEq2bMTohAUCSpGQATwC4ETrYV0BERH7vZwAPy7KcrXUjRqUoAEiSFAHgAQD3AQgX1RQREREO7R/4BMA/ZFnep3UzRuNVADi8c/8WHHrXnyi6KSIiomZsAF4D8LQsy/VaN2MUrQ4AkiSF4VAiu1CVjoiIiE5sE4Apsizv0boRI2hVAJAkqR0O7dTsr1pHREREJ3cAwN9kWV6hdSP+rsWH70iSNBjAWnD4ExGRdhIBLJQkaZrWjfi7FgUASZIuB7AEhw7tISIi0pIVwAeSJL0kSRJPkfXSaS8BSJI0FcAs8CAfIiLSn1dkWb5X6yb80SkDgCRJfQEsB2/xIyIi/bpBluUPtG7C35w0AEiSlIRD1/zb+7QjIiKi1rEDOEuW5eVaN+JPThgAJEkKBrAYwFBfN0REROSFMgCDeItgy51s88R74PAnIiL/kQBgjiRJvGTdQscFgMOb/q7SoBciIiIlegP4h9ZN+IujLgFIkmQBsAVAN806IiIi8p4NQFc+O+D0jn1y3w1QcfhLkgnRGX0Q33sMItp2hjU6AcHRCQgKjwYk3mVIRGQ0Tls97DVlaKopQ+OBfSjPXorKbavhdjSp9ZIhAJ4GwIOCTuPICsDh6ya5UOGwn6CIGKRNuAFJgybAGhkrujwREfkRl92Gii3LUDDvHdQX5arxEm4Affko4VNrHgAex6HUJIw5OBQdzr4GHc6+GuYQ7ssgIqL/kWU3SlbPRf6cN9FUfUB0+Z9lWZ4kuqiRSLIsQ5KkeAD5ACJFFQ6Nb4fet76K8JR0USWJiMiAHPU12PLug6jasUZ06TGyLC8RXdQoPHcBXASBwz+m60AMfPgzDn8iIjqtoPBo9L3zTbQdfbHo0teLLmgknk2AU0QVjE7vjT53vAGTxSqqJBERGZxkMqPb5X8HAOxf+q2osudJkmSRZdkpqqCRmCRJigQwVkSxkJhk9JrxMoc/ERF5peulDyGm22BR5WIBjBJVzGhMAMYDCFZaSDKZ0Ovml2GNilPeFRERBSTJZEbPm/6N4DaJokpeIKqQ0ZggaPk/ZfgFiOzQQ0QpIiIKYEHh0Ug//xZR5YRd4jYaE4CJiosEBaPTeTcLaIeIiAhIHjpZ1EbyjpIk9RNRyGhMOHSNRJG2oy5EcHSCgHaIiIgOXVZOmzhdVLnRogoZycmeBtgqiQPGiShDRER0RHyv0TAFCdlUniqiiNEoDgDWqDhEdeolohciIqIjzMGhiO0xTEQpBoATUBwA4nqOgiQJWUggIiI6SnwvIav3KSKKGI3iyR2W0F5EH0RERMcJTRQyY7gCcALKLwFEx4vog4iI6DiCNpgzAJyA4gAQ3Ia7/4mISB1WMQEgWpKkUBGFjMRy+g85TYGQCMVNZM+8D1U7lT0FqsslDyNlmLInP+bOehVFy79TVKPd2CuQPlnZARZFy35A7vcvK6oR3+dMZF73lKIaRERas4h7lHwUgEZRxYxAcQAQwWlvgNNWp6iG7HIo7sPlsCnuw2VvUtyH2+lQ3kcT/5wTETUjad2A3nD7PhERUQBiACAiIgpADABEREQBiAGAiIgoADEAEBERBSAGACIiogDEAEBERBSAGACIiIgCEAMAERFRAGIAICIiCkAMAERERAGIAYCIiCgAMQAQEREFIAYAIiKiAMQAQEREFIAkALKSAgMf/ARRnXopasJWVQKXTdnz64OjE2AJi1BUw15bAUd9raIa1ohoBEXGKqrhbKhFU02Fohrm0HCEtElUVIOISA8aSnaf8tftBys++evlG58/TZldsiy7hDVlABatGwCAkJhkrVsAAFij4mCNitO6DVjComAJi9K6DSIiXQhLTjvdr1fJsrzdN90YBy8BEBERBSAGACIiogDEAEBERBSAGACIiIgCEAMAERFRAGIAICIiCkAMAERERAGIAYCIiCgAMQAQEREFIAYAIiKiAMQAQEREFIAYAIiIiAIQAwAREVEAYgAgIiIKQAwAREREAciidQOBytXUCFvFfjTVlKOppgz2mnI01RyAvaYc9toKuF1OrVskIvILjoNVl0q3FA7Vuo8WsgEoAVB0+Edxs3/my7Js91UjDAA+ZK+tQPnmxSjbuAhVO9bA7XRo3RIRkREkH/7h7w5KkrQAwGwA82RZrlHzxRgAVNZwYC/KNi5E+aZFqCnIBmRZ65aIiEifIgFcfPiHQ5KkxTgUBmbLslwk+sUYAFTSWF6I/B//i9L1v3LoExFRawUBOOfwj1ckSZoJ4BlZlitEvQADgGCOumoU/PwOipZ9xyV+IiISwQrgLgDXSZL0LwD/kWW5UWlRBgBBXHYb9v3xGfb++hGctnqt2yEiIuOJBvAcgFslSfoHgI9lWXZ7W4wBQID64jxsnnk3GssKtW6FiIiMrx2ADwBMkyTpQlmWy7wpwnMAFCrfvATr/n0thz8REfnaKABrJUnq480nMwAosGfBB8h+6164uORPRETa6AhghSRJF7b2ExkAvOB2NGHrB48g78fXoeDyCxERkQjhAL6VJOkJSZKkln4S9wC0ktvpwMbXbkV17l9at0JEROQhAXgSQCqAGS35BK4AtNKOL5/j8CciIr2aLknSXS35QAaAVti38AsUr5ytdRtERESn8pIkSeNO90EMAC1UuW01cme9pHUbREREp2MG8LUkSd1O9UEMAC3QcGAvtrz3EGQ3N/wREZFfaANgjiRJbU72AQwApyHLbmx59wE4G2q1boWIiKg1ugJ492S/yABwGiWr56KucKfWbRAREXnjIkmShp7oF3gb4Cm4HXbkz52p+uvEdeiIjn0GICohEZHxCYiIS4DJbFb9dYmI6BCb0wm7y6X667gcdtRXlKO+ohx1B0qxb+M61Jd7dZJva/wLwBnH/iQDwCnsW/Q5mqpKVakd3yENA6degh6jz0R8x06qvAYREZ1end2ORqdTmxeXZZTuyEHe8iXInvMdGqur1HiV0ZIkTZJleV7zn5QAKHpY/cAHP0FUp16KOtMjR30NVj1+PpyNB4XWDY+Nw1nT78CgqZfwXT4RkcY0Hf7HsDfUY90XH+Gvbz6D02YTXT4bQN/mTw/kHoCT2LPgfeHDv9e4ibhv9m8YctHlHP5ERBrT0/AHAGtYOIbfeBuu+3w2kjOFv7HuBeCq5j/BAHACLrsN+5d+K7TmmdNvx6XPvozgsHChdYmIqPX0Nvybi0hIwsWvv4fu4yaJLn1v8/9gADiBym2r4LKLW36Z+tg/cdb0O9CKZzQQEZFK9Dz8PcxBVpz72D8x4LJrRJbtI0lSmuc/GABOoHzjImG1Rl9zIwZecLGwekRE5D1/GP7NjbrlbmSMGiuy5AWef2EAOIbsdqM8e6mQWt1Hn4lxt98npBYRESnjb8MfACBJOPfxZ5HQuauoigwAJ1Od+xcc9TWK6wSFhGLKI09BMvG3mIhIa345/A8LCgnFmfc9KqrcSEmS4gAGgOOUbxKz/D/yymmISkgUUouIiLznz8PfIyWrt6hLAWYA5wMMAMep2LpCcY2w6DYYde2NArohIiIljDD8PUZMvwMQs5l8AsAAcBxbRbHiGpljz+HtfkREGjPS8AeA2I6dkNw9S0SpNIAB4CiO+hq4nXbFdbqPPlNAN0RE5C2jDX+P9JFjRJRJBRgAjmKvUf5ABos1GJ0HDxPQDRERecOowx8AOovZB5AsSZLEANBMk4AAEN8xDUEhoQK6ISKi1jLy8AeA2LR0mIOsSstYACQwADTTVK08AHDnPxGRNow+/D3C4+JFlEllAGjGXlOuuEZkPAMAEZGvBcrwB4QFgBSLiCpGYa9T/hzm8DYximtsW70S6+bMVlSjXc/eGHvFVaf/wFMoysvFH++/o6hGdHIKJt95j6IaBysrMfvFFxTVMFksuPLp5xTVICJ9CqThDwChAuYMgAQGgObc7tN/zOkIuEeztKAA23/9UVENp70JUBgAasrKFPcRm94NUBgAbA0NivswB1kBBgAiwwm04Q9A1IPlTAwAANwO15EfRETkHwJx+IsU0AFAdrnhanJCdgl4509ERD7D4a9cQAYA2S3D1eSA7OTgJyLyNxz+YgRcAHA73XDZ7ICsdSdERNRaHP7iBFQAcNudcDXxDw4RkT/i8BcrYAKAy+bgJj8iIj/F4S9eQBwExOFPROS/OPzVYfgA4LY7OfyJiPwUh796DB0A3E43r/kTEfkpDn91GTYAyG750G5/IiLyOxz+6jNsAHA1OXirHxGRH+Lw9w1DBgDZ5eYhP0REfojD33cMGQB43Z+IyP9w+PuW4QKA2+Hi2f5ERH6Gw9/3DBkAiIjIf3D4a8NYJwHKsiHe/Wf0HwDH7Q8pqpHYKV1xH4kd0zBGYR8RMbGK+4hoE624D7PZWH/UiYyCw187hvqu6DbIxr/23bqjfbfuWreBuJQUnHPd9Vq3gdCISF30QURicfhry1CXANxOLv8TEfkDDn/tGScAyOCtf0REfoDDXx8MEwBkmcOfiEjvOPz1wzABAJz/RES6xuGvL4YJALLMc3+JiPSKw19/DBMAwABARKRLHP76ZJgAwBUAIiL94fDXL8MEAD75j4hIXzj89c04AYCIiHSDw1//GACIiEgoDn//wABARETCcPj7DwYAIiISgsPfvzAAEBGRYhz+/ocBgIiIFOHw908MAERE5DUOf/9l0boBOt7unBxsW75E6zaIiE7J5Zbh5iFsrZI5bgKiU5K1bgMAA4Au7d60Acvf+Y/WbRARkWApWb10EwB4CYCIiCgAMQAQEREFIAYAIiKiAMQAQEREFIAYAIiIiAIQAwAREVEAYgAgIiIKQAwAREREAYgBgIiIKAAxABAREQUgBgAiIqIAxABAREQUgBgAiIiIAhADABERUQBiACAiIgpAFq0boOOldO6KnuddrHUbRGRgbshwy1p3EXgiExK0buEIBgAd6jZoELoNGqR1G0RkUHV2OxqdTq3bII3xEgARUQDh8CcPBgAiogDB4U/NMQAQEQUADn86FgMAEZHBcfjTiTAAEBEZGIc/nQwDABGRQXH406kwABARGRCHP50OAwARkcFw+FNLMAAQERkIhz+1FAMAEZFBcPhTazAAEBEZAIc/tRYDABGRn+PwJ28wABAR+TEOf/IWAwARkZ/i8CclGACIiPwQhz8pZdG6ASLSH1vdQRTv3IbG2lqtWxEmMi4eyV27Iyg4ROtWFOPwJxEYAIgIAFBfVYlf//sSCv5ai8rCvZBlWeuWhDOZzEhIz0CP0Wdi7I23wmIN1rqlVuPwJ1EYAIgIWxf+ih+ffwL1VZVat6Iqt9uF0tydKM3dia2LfsNFT/0L7TJ7ad1Wi3H4k0jcA0AU4FZ8/iG+ePAOww//Y5UV5OHt6y7FrtXLtW6lRTj8STQGAKIAdiA/F7++8bLWbWjG7Xbhh6cfha3uoNatnBKHP6mBAYAoQLndLnz35ENw2u1at6KpmgMl+Pnl57Vu46Q4/EktDABEAao0dyf252zRug1d2Dh/ji6DEIc/qYkBgChAFW7N1roF3XA5HCjJ3aF1G0fh8Ce1MQAQBaj9OQwAze3XUSDi8Cdf4G2AOrT+11+w/JN3tW5DN8LjEnDjqzO1bsNwKvbt0boFXdHL7weHP/kKA4AOHawox4Ht+nk3orWIxBStWzAk2W28g36UkGW31i1w+JNP8RIAEZEOcPiTrzEAEBFpjMOftMAAQESkIQ5/0goDABGRRjj8SUsMAEREGuDwJ60xABAR+RiHP+kBbwMkIq91jkhAvDVC6zZQ2FiFwsZqrdtoEQ5/0gsGACLy2j2dz8Tk1N5at4GXd/2BV3Yt1LqN0+LwJz3hJQAiIh/g8Ce94QoAkWBlu/OxfelCFO3YhqLtW2Eym5HaPROp3TLRY8zZiG3bXusWycdaO/xLt+dgz5qVOLBzO8pyd8AaHo7Erj2Q2LU7uow5G2ExcSp2S4GCAYBIELfLhaUfv4uF7/4XLofjqF87kJ+LjT/PwW8zX8W42+7FsEuvgmTiAlwgaM3wd9psWPHO69j4/VeQ3UcfTVy2awe2zgNWvT8TY+5+CN3PnqBGuxRA+B2ISIDq4iK8Ne0S/PbmK8cN/+YctkbMe+lZvDv9KhysKPdhh6SF1gz/sl078Nm0S7Dhuy+OG/7N2WprsODpv2Puo/fC0dggqlUKQAwARApVFe3Hu9OvxP6cLS3+nD0b1+P9GVczBBhYa4b/gV3bMeueGajev6/F9fOWLcIPD9zOEEBeYwAgUqCqaD/em3EVqouLWv25ZbvzGQIMqrXD//t7boattqbVr1O0eQNDAHmNAYDIS0qGvwdDgPH4avh7MASQt7gJUId6njEWsanttG5DN6whwVq3cBwRw9/DEwJuePtTRMbFC+iOtNLaa/5Kh79H0eYN+OH+2zD1xTcQFBqmuB4FBgYAHYpPTUV8aqrWbdBJiBz+HgwB/q+1w3/WPTOEDH+PouyNDAHUKrwEQNQKagx/D14O8F9aD38PTwjg5QBqCQYAohZSc/h7MAT4n1YN/9ydqg1/D08IsDfUq/YaZAwMAEQt4Ivh78EQ4D9aPfzvnq7q8Pcoyt6I2Q/czhBAp8QAQHQavhz+HmqHAJfTCbuNy8TN2erqIMtyiz9er8PfgyGATocBgOgUtBj+HmqEgMKtmzH330/jhfEjWnVwUSD4a+73eGnK2fj9rVdRsXfPKT+2NcO/PG+Xz4e/B0MAnQrvAiA6CS2Hv4eIuwOqS4qw8ec52DBvNsr3FAju0Fiqigqx6L03sei9N9G+V1/0m3QBeo+biNCo6CMf4y/D36P53QHWsHDN+iD9YQAgOgE9DH8Pb0KAvbER2b/9jA3zZmP3X2tbtbRNh+zL3oh92Rsx76Vn0X3UWPSbdAHaDRkB2ynO6W/OM/wba6pV7vT0irdsYgig4zAAEB1DT8Pfo6UhoKG6Cqu+/hSrv/kcDToYPEbgcjiwdeGv2LrwV0SltMWAy65G1sQLYAk++QFV5fn6Gf4eDAF0LO4BIGpGj8Pf41R7AqqK9mPuv5/Bv88bi4XvvsHhr5La4v1Y9MoLeP+ic/HnR++ccGm/PH8XZt2lr+Hv4QkB3BNAAAMA0RF6Hv4ex4aAkl078M1j9+Plqedg9TefwWFr1LjDwNBYU41VH8zE+xdNwOLX/o3akmIA+h7+HgwB5MFLAETwj+Hv4QkBMaltsXPlMk17iQoK0fT1PSIt2vThsDVi43dfYvMP36DLmLOxd/0aXQ9/D14OIIArAER+Nfw9ynbnaz78AaBLRKLWLQAAumrch9vlwo4/fkFjdZWmfbRG8ZZN+OG+W7kSEMAYACigqT38o4NCEW62qlJbaxGWYLQNbaN1GwCArpH6CCJqiLOGwyyp8626eOtmhoAAxgBAAcsXw//Lwdfj08HXGTIEXNyuv9YtHJESEo3hcelatyFcSkg0Zg+fgVf6XMQQQMIxAFBA8tXw7xWdikExHQ0XAiIswbir81it2zjK37uP17oFoVJCovHN0BuQFhaHqal9GAJIOG4C1KGc1auwfs4PWrchRHRyCibfeY/WbRzFl8PfwxMCrl7zEepddlVe11ckSHi8xwTEWfW1eaxPdDtMSxuGD3ev0roVxZoPf4+pqX0AAPds+g4uuWWHEbWGJwRMffFNWMP19bUldTAA6NCBgnxs//VHrdsQIja9G6CjAKDF8PcwQgiwSCa81PtC/K1tX61bOaGnM89DqDkIb+Yt1boVr51o+Hv4JATczxAQKHgJgAKGlsPfw18vB0iQcGZCN3w79CbdDn+PR7qNx5v9LkNWVIrWrbTaqYa/h08uB9x/K+z1vBxgdAwAFBB8M/ynnXL4e/hTCEgNicZNnUZg4ei78PGgazAwpoPWLbXI+Sm9sGDk7fh6yA24sG0/RFhOfmyvXrRk+Hv4JgTcwhBgcLwEQIbnu+HftsWfo+fLASkh0TgvpScmJfdE/5j2kCBp3ZLXhselY3hcOuxuJ5aU7cLc4mz8dmA76pxNWrd2lNYMfw/1Lwdk44f7b8HUF2fycoBBMQCQoelx+HvoKQQkh0RhUnJPnJfSCwP8fOifiNVkwTlJPXBOUg/Y3U4sPhwGftdBGPBm+HswBJASDABkWGoP/6igEK+Hv4eWISApJAqTkrNwXkovDIzpYLihfzJWkwXjknpgXFIPNLmdWHRgJ34qycbvpdt9/jVQMvw9GALIWwwAZEi+Gf7XKxr+Hr4MAVaTBZe064+/te0bUEP/ZIJNFpybnIlzkzNhczmwqGwnvt2/Ab+XbocMWdXXFjH8PRgCyBvcBEiG46vh31vA8PdQe2Og1WTBdR2HYsWY+/B8zykYFNMx4If/sULMQZiQnIUPBlyF+SNvw/ikTNV+j0QOfw/1NwZmc2OgwTAAkKH44/D3UCMEBJssmJY2DCvH3Idnss5HckiUsNpGlhWVgvcGXIn5I2/Duclig4Aaw9+DIYBagwGADMOfh7+HqBAQbLLg+rRhWDHmPjydeR6SOPi9khWVgnf7X4kFI2/DhOQsxUFAzeHv4YsQ8P19DAFGwABAhmCE4e+hJAR4Bv/KsffjKQ5+YTKjUvBO/yvwy6jbvQ4Cvhj+HmqHgJIchgAjYAAgv+eL4f/F4Gk+Gf4eg2I64vth09E5IqFFHx9ssuCGtOFHBn9icKTKHQamHpHJR4LAxFYEgUExHfHDsOk+Gf4eU1J741+9LoBZUmcfA0OA/2MAIL/mq+HfJ7qdKvVPJTMqBfNH3IbrOg496WpAYnAkbs84AyvH3o8nMydx8PtIj8hkvN3/Cvw66g5c0m4Awk7y9Ym0hOD+rmfj26E3om1oG5/2aHc7cX5KL/yr11SGADoh3gZIfkvt4R9p0W74e4SYg/BM1vl4vMcErK4swNqqvTBDQog5CJ0jEjA2oatqy7x0et0jk/BS77/hqcxJmF+yFYWN1WhyO2GWTBgVn4GBMR1h0eDr43C74JYP3cZ4fkovAMBD2T/AJYu/tdETAqa+9CaCwyOE1yf1MACQX6opLVZ9+H85RNvh35zVZMHo+C4YHd9F61boBCIswbi4XX+t2wAAuGQ3HLLrqJ/zRQj44b5b8beXZ8IaxnMC/AXfOpDfkWUZ3/7jwYAZ/kQtJQOwu10n/DVfXA5Y9uYrqtQmdXAFQIcy+g+E4/aHtG5DiMgY8Zue1nz3JQrWrxFeF9DHsj+Rt+xu5ylPMFR7JSB7zix0HTsO7QcMFl6bxGMA0KH23bqhfbduWrehS3WV5Vjw+v+pUtsz/Pu24fAn/+OUXS06BljtEPDbv57CtK/mQjJxgVnv+BUiv7Jn43rYGxqE1+XwJ3/mluWTLv2fiJqXA2pLilC5p0B4XRKPAYD8StH2HOE1OfzJ39llZ6s/R80QcGDnduE1STwGAPIrxTu2Ca0XZDLj88HXcfiT37K7nUdu+Wut81N64bmeUwR3BJTl7hBek8RjACC/Ivo+Y4fbhV9KxYYKIl9xym44FTz+1yXLWF6eJ7CjQ3groH9gACC/ktojS3jNN/KW4IUdvwqvS6SmQ9f9W7/07+GSZTyU/QPmFmcL7OqQpG49hNck8RgAyK+07S4+AAAMAeRfZABNOh3+AJDYlQHAHzAAkF/p2HcAkjp3VaU2QwD5i9Pd738qag//jJFjEB7fsodYkbYYAMivmIOCcOETL8BkMqtSnyGA9M7hbtn9/iei9vAPjozCmfc9qkptEo8BgPxO2x5ZGHXtjarVZwggvTrROf8t/1x1hz8AjLnjAYTHxatWn8RiACC/dPYtd6HPhPNVq88QQHojw/tNf74Y/kOn3Ywe556nWn0SjwGA/JLJZMZFT/2LIYACRpPb6dVVf18N/6HTZqhWn9TBZwGQ3/KEAADYNH+uKq/xRt4SAMDD3capUp+oJbw97McXw3/Y9bdgyHXTVatP6uEKAPk1rgSQ0Xl72A+HP50OVwDI73ElgIzK28N+fDL8b7gVQ669SbX6pD6uAJAhcCWAjMbbw344/KmluAJAhsGVAP2qddiwt7ESdc4m1DmbUO+0H/53G5rcToSarYiwBCPCEoxwixUR5mBEBYWiQ1gMwsxWrdvXhDeH/fhi+A+/8VYMvobD3wgYAMhQGAK0VeNoxLqqvcirL0NuXRny6suRX1eGcnu9V/UkSEgJiUJGRDzSwxPQOSIBXSMSMSCmA4JNxv325c1hPxz+1FrG/RtEActXISDOGo6bOo1Qpb6/qHfZsaZyN1ZW5GNFRT621hZ5/WjaE5Eho8hWgyJbDZY1e2qd1WTBwJgOGBmXgRHxGegd3RYWyRhXNL097Oef2+erPPxvw+Br1DuAi3yPAYAMyRch4Pkdv2BEXDoyo1JUqa9Xdc4mzCvZgln7N2Bt5R5Fj6P1lt3txMqKfKysyAd2/oYISzDGJHTB39r2w9iErn4bBtyy7NV1/z8O7MAXe9eq0NEhHP7GxABAhqV2CHC4Xbhr07f4bdSdwmvrjVuWsaw8F9/t34AFpTmwuRxat3SUOmcTfireUVDX1AAAIABJREFUgp+KtyDOGo4pqb1xYdt+6B3dVuvWWkyGd8O/1mHD37f8qEJHhwy/6XYMvvoG1eqTdhgAyNDUDgHbD5Yip7bYsKsAdc4mfLLnT3ywZxVKbbVat9MiFfZ6fLB7FT7YvQpdIxJxc/ooTG3bV/erAk1ePuFvcdlOVDsaVeiIw9/oGADI8NQOAX8c2GG4AFBlb8D7u1fiwz2rUOuwad2O13bWHcC9m2fhldyFuC39DFzSrj+CVHqSpBLenvQHAIvLdwnu5pAR0+/AoKuuV6U26QMDAAUENUPA1tpiofW0VGGvx5t5S/HZ3jVocNm1bkeYfQ1VeHjLbPwndyFuSR+NqzsM1k0QcMguRfsottQUCezmEA7/wMAAQAFDrRBg1ckgUcIty/h831r8a8evqFFpOVkPSmy1eCLnJ3yyZzX+2XMyRsZlaNqPS3bD4fbu8b4eooPMiBl3YtCV04TWJH1iAKCA4gkBLrsdW/74RUjNYHOQkDpaya7Zj0e2zMGmmkKtW/GZvPpyXP7nB5ic2htP9JiIxOBIn/fg7Y7/Y4k8D2HY9bdw+AcQfe+KIVKByWSGwFvV0b9Ne3HFfKjO2YRHt87BeStnBtTwb25O0WacseQVvL97pdDzC07H2x3/JyLyTgeThe8JAwkDAAWcsoI85CwSc6Z/qDkI56f0ElLLl7bWFmPiijfwyZ4/fTr49KjO2YQnc+bhqrUfeX1iYWt5u+P/RC5u119IHQDY8O0XcDmMs/eDTo0BgALO4g/fgixo6J2f0hsRlmAhtXzl071/YvLKt1BQX6F1K7qyrDwX45e9jlUVBaq+TpOCHf8nkhWVgixBd6E0VFUgR6WDs0h/GAAooFTu34fNC+YJqWWRTLij8xlCavlCnbMJt274Cn/fMserR8wGggNNB3H5mg/wau4iVVZGvDnjvyVmpI8UVmv9V59Advv+dEfyPQYACiirv/4MboW7rj0ubtcfaWFxQmqprbCxCueteFPVs+KNwiW78eLO33H9+k/RKPDEQ6eXZ/y3xLikTHSNTBRSq7pwL/KWLRJSi/SNAYAChsvhwIafxRyZajVZcHeXM4XUUtu2gyWYsvJt5NWXa92KX/njwA5c+uf7qLI3KK7llmVVV10kALdniFuNWvv5h8JqkX4xAFDAyFn8Oxqqq4TUuqrDIKSGRAuppabVlQW4cNW7ONB0UOtW/NKG6n342+p3sL+x2usah3b8q//shHFJmegSIWYVoHT7VhRuWCekFukXAwAFjHWzvxVSJ9QchDsyxgippab5JVtx5ZqPcNCpr6N8TWYzIhKSkNyjJzJGjUXWxCnoNGwUErt0R1hMHCSTvr4t5daV4YJVb2PHwdJWf64MoMnlFLTf/9RErwKs+/IjYbVIn3jTJwWEqqL9yFuzUkitaWnDEB8cIaSWWn4pzcEtG75SZcNZS0UlpyJ95BmIS8tARHwCwhMSERGfgNDomFMOebfLhYbKctSVl6G+vAx15WUo3b4VBSuXorHG+3fiSpTYanHxn+/h+6HT0TkiocWf1+R2wO2T8X/I+ORMdMlLwK66MsW1dv+5ErUlxYhKNtZzLuh/GAAoIKyf852QW/8iLMG4JX20gI7U82flbty24WtNhn9itx7IGDkWGSPHID6ji1c1PCsEEQlJR/287HajeMsm5C1fjLzli1FduFdEyy1WZW/AVWs/wuxhM5AcEnXajxd9u19LSABuyzgDd2/6TnkxWcb2X+dh8DU3Kq9FusQAQIYnu934a873QmpN7zQSbYJChdRSQ05tMaat+1TYKXOnY7JY0L7fIKSPHIOMkWccN7RFkkwmpPbuh9Te/TDq1ntQuXc38pctQt7yxSjOyYbQ4x1PYn9jNa5a+xG+HzodUUEhJ/04u9up2erLuclZ6JK3RMgqwDYGAEPT18U2IhXsXLUMNQdKFNcJNQfhxk7DBXSkjn0NVbhq7ce+ueYvSeh29rm47vPZmPrSm+gz9RJVh/+JxHZIw8Arp+HSmR/jinc/R/sBg33yujsOlmLa+pOHLIdb2dP9lJIA3CpoL0DV3t0o2bZFSC3SHwYAMrz1PwpYDgUwJbUPIi0nf9enpTpnE65a+xHKfLDbv/2Awbji3c8x4R/PIypF3Dn0SiR27YELX3kbU198Awmdu6r+emsqd+OeEyyzO2WXavf6t8a5SZmt2qtwKtsW/CSkDukPAwAZWn1lBbYvXSik1tUdfPMO0xsPbZmNfJXv80/o3BVTX3wDF77yNhK79lD1tbzVcfBwXPHelxj/6D9V37w2tzgbn+7988h/u2Q37IIOmVLKJEm4TdAqwI4/FsDt5MmRRsQAQIb2108/wCXgm1ev6LZCn7om0md712BO0WbV6kclJWP8o//EFe99iY6D9XsJxEMymdBj/CRc+/lsjLrtXgRHqPeo3ydzfsbW2mK4ZLfP9l201LlJmWgX2kZxHVttDQpWLxfQEekNAwAZ2jpBy//X6PTdf05tMZ7MEfNsgxNJGzQUV37wNXqMn6S7+/NPxxxkxYBLr8YV732BuE4ZqryG3e3ELRu+RKWA0wJFM0kSJiRnCanFywDGxLsAyOecdjt2rVqG/du2oGjbVpTtzhd2Pn9zsltGTWmx4jqRlhBMTu0toCOx6l123LLhK9XeeQ68+AoMv/VemMxmVer7SnRqO1w682PMf/rvKFi5VHj9gvoKPJ4zFy/3vlB4baUmJGfh3YIViuvkLV+EDy6ZKKCj45mtwYhP74zEbplI7p7ls82cxABAPla0fSu+/cdDOJC/S+tWWuzCtn0RZrZq3cZxXtr5uyrX/c0WC8bd/yi6TbxAeG2tWMPCMfm5V7Dindex7ouPhNefV7wFE5KycE5Sd+G1lciKSkH70Bjsa1R2BLbsdqO2RHmYPpmqvbuxa/HvAIAOA4finIefQGRismqvR4f415oe+bWlH7+Lmdde7FfDHwCu0uHy/866A/hw9yrhdcNjYnH56+8bavh7SCYTRt58F8Y/+k+Yg8QHuue2LxD69EBRzk3O1LqFVtm7bjU+u/Zi5AravEsnxwBAPrFr9XL88vqLcLv0sUu6pbpGJKJbpG/vb2+JR7fMEX6veXKXbrj2/S8Rn6W/yx0i9Rg/CRe99h7CY8U+yrnIVoM38pYIrSmCqH0AvtRUX4df/vkYavYXat2KoTEAkOqa6usw+5+Pa92GV8Yn6e/d0+yiTVhdWSC0ZmJ6F1zx5kewxot5mpzepWT1wsVvfIiQKLFPdPxw9yrdPXY5KypFyN0AvuawNeKX5/8B2a3doUpGxwBAqlv+2QeoLinSug2v6O2abp2zCc9smy+0ZmhUNC7892twB+vzkCO1tGnbHpOe/rfQTY5O2Y2nVLwrw1vn+uEqAAAUbd6AnYt+07oNw2IAINXt3rhe6xa8khgcib5t2mndxlE+2rMaBwSe9mcymzH12ZcQHKAbrtr3H4wz7nxQaM0/K3djRUW+0JpKTfCzfQDNFW/ZqHULhsUAQKqSZRlF27Zq3YZXzknqDgmS1m0c0ehy4D0Bt3Q1d/bdDyGxzwChNf1Nn6mXoPeUi4TWnJkn/nZDJXpGpfrlZQAAKN2xTesWDIsBgFRVWbgXtjr1z6dXwzmJ+jru9rO9a1BhrxdWr++Ui5A55WJh9fzZmLsfRvt+g4TVW1u1B+uqfPu44tPxt7sBPMpyd2jdgmExAJCq7I36OyGtJcLMVoyMV+f0OG/Y3U68lb9MWL32fQdg9F0PCavn70xmMyY983+Ibivuko/eVgHOTfLPfQBOmw+ebhmgGACITuCMhC4INunnnKyvC9cLu/YfGt0GE595ESaLfv7/9CAkKhrnP/uysE2ByyvysLlmv5BaIvSK9t/LAKQOBgCiE9Dbk/8+EHjoz+Brb0JoNAfBicSnd0HP86YKq/fp3jXCaolweXtxlznI/zEAEB2jW2QSRsV31rqNI7Jr9iO3rkxIraiUtujN6/6nNGTazQgKCRVS67fSbWhw2YXUEuGS9v11eaw1aYMBgKgZkyTh4W7jtG7jKLP2i7sNasRNt8McFCSsnhGFx8ah/2VXC6nV6HLgl1L97GKPsoTg5vRRWrdBOsEAQNTMc1lTcHaifg7/ccpu/Fi0SUitxK490O2s8UJqGd2Ay65BWEyskFqivn6izEgfiWs6DtG6DdIBBgAiALHWMPxfr6m4soO+rpEuLd+FckG3/o265W5A0s+5BnpmDQvHkOumC6n1Z+VulNhqhdQS5e/dz8VtGWcgxMyNoIGMAYACVpDJjO6RSbiz81isGHM/Lms/UOuWjjN7v5h3jx0HD+dz1lup1/kXok3b9orruGUZ80q2COhIHAnAnZ3H4NeRd+LSdgPQMSwWJobDgMP4R7oXYw3Dl4OvF1oz1ByEDmGxsEj6zsDLKvKE1Bkx4w4hdQKJyWLBsBtuxfynH1Fca2V5Pm5IGy6gK7GSQiLxdNZ5AIAmtxP7GqrgkMU9sbPeaceVaz4UVo/EYgAg3TNLJmRFpWjdhs/trDuA8qY6xXXiOmUgsYt+9jX4k4zRZyIoJBQOW6OiOuur98LhdiHIJO7BQ6IFmyzoHJEgtGatk4f46Jm+3/4QBbAV5WLe/WeMGiukTiCyWK3oOHiY4jqNLgc26ehQICKAAYBIt1ZWinmiXMZIBgAl0keOEVLnz8oCIXWIRGEAINIhtyxjVYXygRGRkISk7v75EBi9SB8+GpJJ+bfK1QwApDMMAEQ6lFdfhhqHsuvOAJAh6N1rIAuJikZqr76K62yq3g+XLAvoiEgMBgAiHRJ19C+v/4shIkg1uZ3Y31itvBkiQRgAiHQor75ccY3giEi06ztAQDckah9FXr2YYEckAgMAkQ7lCwgAaUOG85G/gkS3bYfYDmmK64j4uhKJwgBApEN5Ai4BtGnXQUAn5NGmfUfFNfLqGABIPxgAiHRIxCWA8PhEAZ2QR3ic8kNyuAJAesIAQKQz9S67kDsAIuLFnuoW6ET8fhbZuAmQ9IMBgEhn6p1NQuqIeMdK/xMuIADUO+0COiESgwGASGfqBAUArgCIJSIANLjs4EkApBcMAEQ6I2IFQDKZEBYbJ6Ab8ogQsKLilmXYXA4B3RApxwBApDN1ApaJw2JihRxfS/8jYgUAEHeJh0gpfocg0pk6l/IBIWpY0f+EtYkRcq5CvYv7AEgfGACIdMbudiquYQ0LF9AJHUWSEBQSqriMiK8vkQgMAEQ6E2EOVlyjoYL3m4vmtNvRVHdQcZ0ws1VAN0TKMQAQ6Uy4RXkAqKvgmfOiNQj6PY0Q8PUlEoEBgEhnRAwIe309HDblhwnR/9SViwkAIgIekQgMAEQ6E2ERs0RcL2hg0SEifj+tJjMsEr/tkj7wTyKRzoQL2AMAAHVlB4TUoUPqypX/fvLdP+kJAwCRzkQGhcAs4F0i9wGIJeISQHSQ8rsIiERhACDSGYtkQrvQNorr8BKAWCJ+P9PCYgV0QiQGAwCRDnWOEPDgGQYAoUT8fqaHxwvohEgMBgAiHRIxKPZv3iCgEwIAl8OO0h05iut0YgAgHWEAINKhjHDlKwClO3K4EVCQvevXwN5Qr7hOp3A+oIn0gwGASIcyIgS8U5Rl5C1frLwOIW/ZIiF1uAJAesIAQKRD3SKSIEFSXEfU4ApkstuNghVLFNeJtYYh3spnNJB+MAAQ6VCMNQzdI5MU1yncuA5N9XUCOgpcJTnZqK+sUFxnSGwnAd0QicMAQKRTw+PSFddwO50oWLVMQDeBK1fQKsqQ2DQhdYhEYQAg0qkRAgIAwMsASuUL2kcxjCsApDMMAEQ6NTSuk5ATAff8uRIuh11AR4Gncnc+qvbtUVwnKSQSabwDgHTGonUDRKdz0GHDrRu+Eloz1GxF54h4dItMwuCYNF0+ojXSEoKeUanYVFOoqI69oR7ZP85C34suF9RZ4Fj/1SdC6gzV8bv/sqY6bKjeh9y6MuxuqIDD7RJW2ym7hdUi8RgASPea3E7MLc5WrX6MNQx3ZIzBtR2HwGrS11+JcUndFQcAAPjz43eQOWEyrOHchd5SFQW5yFkwV0itsxK7C6kjUq3Thrfzl+HTPWvQ5HZq3Q5pgJcAKOBV2Rvw9LafMXHFm6iyN2jdzlH+1ravkNsBG2uqse7Lj5Q3FECWv/UaZLfyd7BRQSEYm9BVQEfiFNRXYMKy/+K9gpUc/gGMAYDosB0HS3Htuk/Q4NLP9fJ2oTEYFNtRSK2/vvmMzwdoocIN64TdPTEpuSesJrOQWiIUNdbgunWfoNyu/GRD8m8MAETNbKjeh2e3L9C6jaNc2LavkDpOmw2rPpgppJbRLZv5H2G1LkjtI6yWCPdunoUSW63WbZAOMAAQHeObwr90dSng/JRewvYmbP35R1TuKRBSy6h2LvoVpdu3CqmVFh6Hvm3aCaklwobqQmyo3qd1G6QTDABEx7C5HPhs3xqt2zgi0hKCc5MzhdSS3W4sf+tVIbWMyO10YuU7/xVW76K2/YTVEuGjPau0boF0hAGA6ARmFerrUbq3po8WVit/xRLsXPiLsHpGsur9N1G9X8w75AhLMC5rP1BILRHqnE1YeGCH1m2QjjAAkMqU72DXQl59ObYdLNG6jSOyolJwtsBbyX594Ukc2LVdWD0j2PH7Aqz9/ENh9a7sMAiROjpfYuGBHbALvMef/B8DAKkqJiUVkuSfIeCn4i1at3CUOzuPEVbLabNh7iP3oKGqUlhNf1a6PQe//etJYfVCzBZc13GYsHoizC/N0boFr0Qlp2jdgmExAJCqQiKjENu+g9ZteOUnFQ8f8ka/Nu0xKj5DWL2DB0rw02P3weVwCKvpj+oryjH30XvgbGoSVvOSdgMQaw0TVk+pOmcTlpfnat2GVxK79tC6BcNiACDVtcvsrXULXsmvL0dObbHWbRzlrs5nCq1XlL0Ri155XmhNf+Jy2DH30XtRV3ZAWE2ryYwb0oYLqyfCorKdfrv8n9hVf6coGgUDAKmu9/hJWrfgNb1dBhgSm4aJyVlCa2756QdsnCX2WQv+4vd/P42SHLErPTd2GoHkkCihNZWaXyLmtkZfMwcFofPos7Ruw7AYAEh13UeNRb+JU7Ruwys/lejrMgAAPJE5CWFmq9CaS//7InKXLhRaU+9WvvcGtv0yT2jNdqFtMKPTKKE1lap32rG8PE/rNrwy7IZbEZsm5rHYdDwGAPKJ8x54DFGJSVq30WoF9RXYqrPLAKkh0UI3BAKA2+XCT4/fjzWfvCe0rh45m5ow/6mHVfl/fazHBISY9fVAqYVlO/zyvP/U3v0w4LJrtG7D0BgAyCdCIqNwy8ffoduIM7RupdX0thkQAKZ3GomM8HixRWUZK997Az8/8RCcNpvY2jpRV3YA395xPXb8If4chLMSu+nuoT8A8Iu/7f6XJPSZegmmvvgGJBNHlJr4u0s+E5WQiGtefQdTH38WCWnpfvOXW2/7AAAgyGTGM1mThTwp8Fg7F/2Kb26bhoOl+jkHQYSSbVvw5fQrUbpd/EAMM1vxWPcJwusq1eCyY2mZf+z+N1ksSOqeib+9NBNj73kEQSGhWrdkePpaq6KAMHDKRRg45SLYGxpQtCMHZbvzIauwQ9ntcuPnl5+Dy6ls+XN3QwW21BahZ1SqoM7EGBWfgZs6jcA7BcuF1z6wazu+nH4lznvmRaT21tdxtt7Y/vt8/P7Ck3Da1XnS41OZk5AaGq1KbSUWHdgpZPk/MikZg666QUBHx7NYrYhP74K49M4wBwWp8hp0YgwApBlrWBjS+g1EWj/1jkvN/XMFti35Q3Gdn4q36C4AAMAj3cdhXdUe/KXCA14aqiox654ZGH37feg95WK/WbFpzmm3Y/UHM7Hui49Ue42L2vXD5FR93uq6QNDyf+aEyeg95SIhtUg//O9vNFEr9Jt0gZA6s/ZvgF2HG6kskhlv9LsM0UHqLJe6HA4seuUFfH79ZShYLX6lQS2y242c+XPw8RVTVB3+XSIS8Xj3iarVV6K8qQ5LynYJqdVjnP/eyksnxwBAhtZ91FiERilfmi2x1eLLfesEdCReu9A2eKX3haq+Rnn+Lvz44B347q6bhD0qVy0Fq5fj8+svw6/PP4GDB9TbxxBqDsKrfS/W3a5/j3cKVghZ/k/J6oU27fzzNE86NQYAMjRzUJCwg4jeyFsKh05PUzsnqQfu7DxW9dcp3LAOX864Gj8/8RBq9heq/nqtUbp9K7676yb8+OAdKM8X8873ZEyShBd6XiD+TgxBypvq8HWhmMDaY/z5QuqQ/jAAkOGJugxQbKvBV4K+qarhga5n44r2g9R/IVnGzkW/4uOrp2LRKy9o+lRB2e3G/s1/4ecnHsKXM65G4QbffH0e6z4B5yZn+uS1vPFuwQrYXMrf/ZuDgtD1zHECOiI90ufaFZFA7Xv2QXzHTijfU6C41n9zl+CydgMRZDIL6Ey853pORqWjHgtK1L/32+10YtMPX2PTD18jKjkFGSPHImPUWLTt01/VDYPOpibsXbcaecsWIX/lUjRWV6n2Widya8ZoXNnBB0HLS+VNdcKCatrQkQgRcAmN9IkBgAJCv0kX4Lc3X1Fcp8hWg68K1+PqDoMFdCWeWTLhv30vxVVrPsLqSuWBp6VqS4qx4bsvsOG7LxASFY1Ow0chY+RYpA0eDktIiOL6ttoa5K9cirxli7Bn7SrNDiq6rP0A3OWDSy1KiHr3DwA9xp8npA7pEwMABYS+Eyfj97dehex2K671Rt4SXNZugG5XAYJNFnww8Cpc/ueH2FTj++v0ttoabFvwE7Yt+AkWqxVRKW0RHp+AiIRERMQlIDw+ERHxCQiPT0B4XAJCIqPQUF2J+vIy1JWXob78wKF/ryg78nM1RYVCvnZKTErpiSd66Hs3fLm9Xti7/5CoaHQapq/nGpBYDAAUECyx8eg8+kzsWvy74lr7G6vxTeFful4GjrSE4OuhN2D6+i+wtFzdDXGn4rTbUbmnAJUCLr9o6YoOg/B49wkwSeJPXhTpPYHv/ntfcAkP5jE4bgIkw6uz29HodGLgFdcJq/nfvMVwyvq8I8Aj3GzFR4OuwuQUfR5S4y/u7DwGT/SYqPvhX26vx1eCblW1BAej30WXC6lF+sUAQIbmGf4AkNQ9C+0EnTpYeHgVQM9cshtOt4x/956K6zoO1bodv2OSJDyZOQm3ZfjHA6zeL1iBRpdDSK2siVMQ2iZGSC3SLwYAMqzmw99j4OXXCav/eu4S3a4C2N0uNLmdkCFDAvBI9/F4tPu5sEj8K98SkZZg/Lfvpbi8vXrHVItUYa8XdlCVZDLxMbwBgt8NyJBONPwBIG3oCMSndxHyGoWNVfi2cIOQWqK4IcPmdpwwmFzTcQi+GHK9Lh9aoye9olMxe/jNOCuxm9attNh7At/9dx17DqJS2gqpRfrGAECGc7Lh7zHg8muFvdaHu1cJq6WUU3bD5nLALcsn/Zg+0W3x47CbcXZidx925j+u6zgUXw25Ae1C22jdSos1uhxCL0cNvGKasFqkbwwAZCinG/4A0O2s8YhMTBbyetsOliC7Zr+QWt6SATS5nS1+WFFUUAje6Hcp/t59PKw6vZXR19oEhWJmv8vwSPfxfneZZH7JVtQ5m4TU6jhoGBK6+M/KBynjX3/SiU6hJcMfAEwWC7ImTRH2uj8WZwur1VpuWYbN5YBLbv098td2HIqfRtyKkXEZKnTmHyQAF7bthwUjb8eZfrTk39xPAv/89b7gYmG1SP8YAMgQWjr8AeDAru3YOOsrYa9daa8XVqs1HG4XbG4HZJx8yf90OobF4v2BV+G1vhcjOSRKYHf61zUyEV8MuR7P9ZyMGGuY1u14rULgn78Vb7+G+soKYfVI3xgAyO+1dvh/f8/NsNXWCHt9m6DNVy3llg9t9HMIvANhfFIm5o+8DTekDdftCYeiRFiC8VC3cZg9bAb6t2mvdTuKiXjkr0fl3t2YdeeNDAEBggGA/JrWwx8AwsxWofVOxSEfetd/qo1+3gozW/Fgt3Pw+6g7cXWHwbp9zr23ooNCcWfnMVh0xt24Pm0YzH52rf9kRP/5YwgIHMb4G0ABqTXDv2zXDlWGPwCckSDmtsJT8dze53Crf+5AckgUHusxAX+Mvhs3dhru04CjhjhrOB7oejYWjb4bt2WcgSiL8ocT6cnIePF7OBgCAgMDAPml1g7/WffMUGX4WyQTxqgcAJyy67S396kh3hqOB7qeg8Vn3I37u56NzhEJPn19pfq1aYenMs/DwtF348ZOIxBu8e8gczJjErqqUpchwPiMtcZHAUEvwx8AZqSPQqRK7yhlyGhyO30++I8VHRSKmzqNwE2dRmBrbTF+LNqMecXZKNdo8+OpdAiLweSU3pic2hsdw2K1bscn+rdpjzEJXbC4TPxDnzwh4MLX3kN4bJzw+qQtBgDyK60a/rk7VR3+vaPb4v6uZ6lS2ym7W3xfvy9lRaUgKyoFD3Ubh1UV+VhanovVlQXYebBUwb0I3jNLJvSOTsWQ2E4Yk9AF/Qywqc8bL/S8AOevnImypjrhtRkCjIsBgPxGq4f/3dNVG/7JIVF4q9/lsEhid8zLkGF3u7y6r9+XzJKEkfEZR64/V9kbsKZqN1ZVFGBd1V7saaiAXYX9CqHmIGSEJ2BwbEcMje2EgTEdDbu03xox1jC83vcSXL/uMzS47MLrMwQYEwMA+QW9Df9vh96I9mFin5bmlN1wuJ2avJNWKsYahvFJmRiflAkAcMky9jdWo6C+HAUNFSioL0dhQzXqXE2odzah3mk//O92uGQ3gkxmhJutCLcEI9xiRbg5GFFBIegQGoNO4fHoFB6H9PB4JIVEQd8P5dVOvzbt8d6AK3Hj+s8ZAqhFGABI91oz/Mvzdvlk+KeFifsGKAOwu526f9ffGmZJQoewGHQIi8EZOPUmSZfsNswteVobENMB7w64EjcxBFAL8G+XJM8EAAAWDUlEQVQd6Zrehv83Q8QOf5fshs1lN9Twby0Of7EGHg4BoeYgVerz7gDj4N880i1vhn9jTbUqvSQdHv6dwsUMf88O/yY/XfInfWMIoJZgACBd0tvw/1bg8Pc8tjeQ3/WT+gbFdGQIoFNiACDdadXwz/ef4S8fPs3Pznf95CMMAXQqDACkK60e/nepvex/g5Dh75BdaNTgND+iQTEd8U5/hgA6HgMA6UZrhn/l3t2YdfcM1YZ/YnAkvhlyA9LD4xXVOfLkPh+c4U90MoNjfRMC1Pr7SOpgACBdaM3wd7tcWPD039FYXaVKL4nBkfh26I2Kh7/drd6T+4ha61AIuELVELDw5edUqU3qUBwAZG5kIoVaM/wBYO1nH+DAzm2q9JIYHIlvFA5/l+xGo8sBp8x3/aQvg2PTVA0Buxb9hl2LflOlNomnOADYD1aK6IMCVGuH/8HSEqz55F1VevEM/wwvh//Rt/bxXT/pk9ohYOErz8PlcKhSm8RSHgBqykX0QQGotcMfAIqyN6ryzSVB4fDnrX3kTwbHpuFtlUJAY3UVKnbnCa9L4ikOAE3VZSL6oADjzfAHoMrSf8LhDX/eDH/Pu37e2kf+ZoiKIaBs53bhNUk8xQHg4N6tIvqgAOLt8AcOHfojUpDJjK+HXI/OEQmt/lzPrX1810/+akhsGl7pc5HwumV5O4XXJPEUB4CqHWvhstWL6IUCgJLhDwBhcWIfQOJwu/B2/vJWXbP3bPLjrX3k7xpdDny0e7XwuuGxyu6gId9QHADcTgcqtq4Q0QsZnNLhDwCJXXsI6uZ/vi5cjwc2/3DaEMBNfmQkjS4Hbv7rS6yuLBBeO7Frd+E1STwh5wAUrfxRRBkyMBHDH1DvG8vpQgCX+8lI1Bz+gDpBncQzAVB8Eb8yZyWqdq4T0A4ZkajhDwCpPfsipWcfIbWO9XXhejyYPfuoEMDlfjIatYd/5oTJCG0To0ptEssEYI6IQnk/vCqiDBmMyOEPAJLJhHGPPAVLcLCwms19tW8dHsyeDTfcXO4nw1F7+IfHJ+CMO+5XpTaJJywA1O7egn0LvxBRigxC9PD3iGnfESOm3yG8rsdX+9bhvs3fw8nlfjIQtYe/ZDLhnAefQHBEpCr1STwTgD8BlIooljvrJVRuWyWiFPk5tYa/R7+Lr8SgK6epVv+7wg14bOsc3b33d/G5An5Bb89/8MXwP/vBfyBt6AhV6pM6LLIsy5IkzQVwo9JistuNLe8+hP73vY+Itl0EtEf+SO3h7zFixp0AgLWff6hK/e8KN0CChGeyzoekyiu0TKntIOYWZ2Nh2Q5sqN4HCRLCzVZkRCRgats+mJjcE5EWdS6J0OmVN9VhdtFmzCnejP2N1Wh02WGRzBgW1wlnJnbDpOSeiNDw6+Or4Z81cYoq9Uk9lsP//BECAgAAOBsPYv2L05A17VnE9z5DREnyI74a/h5qh4BvC/8CAM1CwJyizXhq28+oczY1+1kZtU4bNlTvw4bqfXhu+wJc0m4ApncaiYTgCA26DEwF9RV4I28Jfi7ZctzKjEt2YnHZLiwu24W38pfh/3r9DQNjOvi8Rw5/OhXPbYDzAeSIKuqy1WPzW/egYN47kLl7OmD4evh7jJhxp6qXA74t/AuPb53r08sBLtmNB7N/wAPZPxwz/I9ncznxyZ4/cdbSV/Hs9gUoa6rzUZeBqaC+Avdv/h4TV7yBucXZp70sU9RYg6vXfoS385f7qMNDOPzpdCwAIMuyS5KkhwDMFVZZllHw00yUrv0ZGVPuQEK/s4SVJv3Ravh7+GIlQALwtA9WAlyyG/dsmoVfSluXyZvch4LA1/vW49L2A3BTpxFIDOaGLFHy68vxZt5SzCvZ0upr/G5Zxsu7/oBDduH2DPVXRjn8qSU8lwAgy/JPkiQtASD0T2dD6R5kv3M/ojr1QvLgiUjoMxbBMUkiX4I0pvXw91A7BHxz+HKAmiHAJbtx7+bWD//mmgeBS9r1x/T0kQwCCuTVl+PNvCX4uWSr4s19r+cuhgTgNhVDgE92+z/0BDInTFalPvmO5Zj/fhCH7goQrrYgG7UF2dj59b8Q2aEHItp2QXB0AqzR8QgKbwNIyr6lRqR0hzWKwcLX9DL8Pfw5BHiG/4ISMVfjmtxOfLp3Db4p/AuXtOuPmzqNRFIIg0BLiRz8zb2WuxiAOiGAw59a46gAIMvyGkmSvgFwiZovenDvNhzcK/axrt0u/wcS+00QWpNOTW/D38MXIUCChKeyzhMWAlyyG/dt/l7Y8G/OEwS+LlyPS9odujSQHBIl/HWMIreuDG/mL8V8wYO/uddyF0OChFszRguryeFPrXXsCgAA/B3A+QBCfdwL+RG9Dn8PtUPA14XrAUBICHDJMu7b/D3ml6j7aG2724XP9q7Bl/vWYnBsGs5NysK4pB6ItYap+rr+oKixBvNLt2J+yVZk1xT55DVfzV0EAEJCAIc/eeO4ACDLcp4kSdcB+Nr37ZA/0Pvw9/CHEOCSZdy/eZbqw//Y11xVUYBVFQV4ets8DInthAnJWTgnsTtiAigMFNlqsKAkB/NLtmJzzX5NehARAjj8yVsnWgGALMvfSJKUBeAfPu6HdM5fhr+HnkOAZ/j/7MPhf6IeVlbkY2VFPp7MmYehsWmHwkBSD7QJMt4iYLGtFr+UHhr6m6oLdXHSo5IQ4JPh//CTyDz3fFXqk7ZOGAAOexJAFoALfdMK6Z2/DX8PX4QASQKezGx5CHDJMh7I/l7T4X8sl+zGiop8rKjIxxM58zDMszKQ1B3RfhwGSpoN/Y06GfrHejV3ESRJwi3po1r8ORz+pNRJA8DhI4KvAZABoK/vWiI98tfh76F2CPhq36GVgJaEAM/wn1e8RZVeRHDJbiyvyMPyijw8kfMTxidnYlrHYegVnap1ay22vDwPH+5ehRUVeboc+sf6z66FANCiEMDhTyKcagUAsiw3SJI0GcAqAG190xLpjb8Pfw89hACXLONBnQ//YzllN+YVb8G84i0YHd8Z/+lzMcItVq3bOqliWy1u3fAlcmpLtG6l1f6zayEkADefIgRw+JMoptN9gCzL+wAMBrBO/XZIb4wy/D3UPjb4q33r8VTOvBO+4/QM/5/8aPgfa2l5Lq5e+xEq7Q1at3JC+fXluPzP9/1y+Hu8smvhSY8N5vAnkU65AuAhy3KRJEmjAbwP4HJ1W/JORc6yl5OHnL9GSY3avdnXAuBhAocZbfh7qL0S8OW+Q1n5icxJR1YCjDD8PbbWFuOOjV/j88HqBSlvNLmduH7dpyi21WrdimIv7/oDADAjfeSRn/PF8B/38FPoce55qtQn/WlRAAAAWZYbAVwhSdJWAM8Amj4h9TjlmxZlL75roKJbF6W7c4aBAQCAcYe/hy9DgFuW8VD2D4YY/h7rqvZiYdlOnJnQVetWjvh0zxpDDH+Pl3f9AUkCpncayeFPqmhxAPCQZfnZwyHgEwA8V9SAjD78PXwVAuqcTZhbnK3Ka2jp9dxFugkAdrcLbxcs07oN4V7a+cf/t3fnwVVWdxjHn3MTCCFIWMK+BREMi6KIAUJdGBREsCJo3ViKguJSl+lUau3UljpVa+uo7djRWovoOKKiFBlKwQq22iIKiCiLLAWMCARoCQlCQnL6RwhDICE3uefe8+a+38/MnUxubs79Tf7I88x5l6vS8jKt2L+d8IdzdS4AkmStnWeM6SnpYUnT6rsOgics4V8pUSUgGa0v3KVvy0qVntLI9yjaUlygwtLDvseIi8rPDogHwj/caj0JsCbW2t3W2jtVca+Aue5Ggi9hC/9K8T4xMFlZVZx0FwSbiwp8j9DgEP6odwGoZK390lp7raQhkpJvDy4kwhr+lRpaCRg8Zbqu+e2z6nJBrtc5vjr0X6/vX8nnHCYSUa9hI3TDcy8r5/Irvc1RF4Q/JIdb99ba5ZIuNsb0lzT22IMbCDUAYQ//SvE+HODK4CnTNXjK7ZKkbhcO0Z4v1+uTV1/SpmVLZMvLEzpLmU3s+9XExxypTZqo76irNeD6Ccrs2FmSNPKhX0qSNixZmPB5omUiEY14cKZ6jxztexR45vzYvbV2jaQ1kn5hjMmWdLUqysBFklJcvx9iQ/hXFfQSMOSWOzTo+7dVea5tr9668ueP6cDOu7Vqziv6YuE8HT1yxNOEyS89s4X6j7tB/cddr/TMFlV+ZiKRQJcAwh8niuvJe9babZKelvS0MSZdFXcT7CCp40lfWyv2wxH5Mf5+6BD+1QtqCagu/E+U2bGzht3/Yw2+ZbrWvPWa1s6fq+J9wThGnwxadc1W//E3qu+VVys1La3G1wW1BBD+OFnCzt4/dh+Bzcce8IzwP72glYAht96pQZOnRfXa9MwWGjxlugZNvk3bP16u9Yvma8s/l+poSUmcp0w+TZpn6uzhI9V75Bi173NO1L8XtBJA+KM6XL4XQoR/dIJSAuoS/icykYiyB+Upe1CejhQXadPSJVq36B3t/Gx1HKZMHpGUFGUP/o76XHGVuuddrJRG9bvMMSglgPBHTSgAIUP4143vEpA39U7lTqp7+J8sLaOZ+o25Rv3GXKMDX+dr/eIFWv3GqzpSdNDBlMmheYdOOv+6m5Rz2Silt2jpZE3fJcBEIhr5k5nKGUH441QxXwaIhoPwrx9flwi6Cv+TZXbqrMFTpqvNWcG4i19Q9Bh6ic6/9iZn4V+psgQk+hJBwh+1YQcgJAj/2CR6JyBv6l3KnTQ1Ie+F+Ev0TgDhj2iwAxAChL8bidoJIPyTU6J2Agh/RIsdgCRH+LsV752AvGl3K3firXFZG/7FeyeA8EddUACSGOEfH/EqAYR/OMSrBPg61wANFwUgSRH+8eW6BAy97Qe6cMItTtZC8LkuAYQ/6oNzAJIQ4Z8Yrs4JIPzDyVVoE/6oL3YAkgzhn1ix7gQ0tE8hhFux7gQQ/ogFOwBJhPD3o74hTvhDqn+IE/6IFQUgSRD+fg29/R6NevixUz4drjoZrbP03UefIvxxnIlEdMVPH9Gl985Qoybptb6+ZZdu+t7vXyT8ERMKQBIg/IPh7OEjNXH2XPUaNkIpjRqf8vPUtDT1ueIqTZo9V2cOvcTDhAg0Y3Te+Bs04c+vq+vAwYqknPrp6Y2bZmjA9RN184tz1KFffw9DIplwDkADR/gHS9OWrXTlLx5XeVmZ9m/bqj1frpeJpKhtrxy16tZdJkLnxullduqscU/+QUdLSrRv6yYVbNqoxhkZaturt1p06iIZ43tEJAkKQANG+AdXJCVFWT16KqtHT9+joIFKbdxY7XL6ql1OX9+jIElRABoowh9BsP3Qfn36v3zfY2jXkULfIyCO8teu9T2CM226n6m0Zhm+x5BEAWiQCH8ExdObl+rpzUt9j4Ek9+Zdk3yP4MzYJ/+o7IEDfY8hiZMAGxzCHwDgAgWgASH8AQCuUAAaCMIfAOASBaABIPwBAK5RAAKO8AcAxAMFIMAIfwBAvFAAAorwBwDEEwUggAh/JEKj9Ka+RwiURk35eyBcKAABQ/gjUdr2yvE9QqDw90DYUAAChPBHInGP+ar4eyBsKAABQfgj0dr3OUeRVO4GLklntGuvM9q29z0GkFAUgAAg/OFD05atlDvxVt9jBMKl9zzgewQg4SgAnhH+8Cl34lS16Xm27zG8yrlslHpcNMz3GEDCUQA8IvzhWyQ1VaN+9qhadc32PYoXXc6/UJfeN8P3GIAXFABPCH8ERatu3XXTi3N0wY2TZSLh+JfQqEm6ht3/oMY/9ZyaNM/0PQ7gBWcAVWUT8SaEP4ImtXFjXXTHfeo3eqzyP12p3RvXac+GdTp88IDv0ZzJaJ2ldr37qX1OX3UZkKuMrDa+R0KUMtp28D2CM6lpab5HqGQpAFXF/N/ucFHRaX9O+CPIWnbNVsuu2TpH432PAhw37c2FvkcIlCPFp8+ZKB0Ix35f9HbGusDBgt01/ozwBwDEqnhvgYtldlIAqoq5ABTu3VPt84Q/AMCFIgpAXHwT6wL783fIlpdXeY7wBwC4ULxvr0q/PRTrMlbSLgpAVTHvAHxbWKgdaz89/j3hDwBwZeuH77tYpsBae5QCUNUeSWWxLrLhH+9JIvwBAG5t/WCZi2W+kbgPQBXW2jJJu2Jd54uli3Xw8GHCHwDgzOHCA9qxcoWLpfIlCkB1lsW6wL4d27VywdsORgEAoMKK2S+orLTExVLLJApAdea5WOTff3pWRw8fdrEUACDkCnft1Jq357habp5EAajOIklHYl2kqGCPls96zsE4AIBQs1bvP/OEykpLXaz2hbV2s0QBOIW1tkjSuy7W+uTVWdr497+5WAoAEFLLZz2vLW5O/pNO2OWmAFTPyWEASVry2MPavWGdq+UAACGyadm7rneTj+ebsTYhn3/ToBhj2qriMgknBSmt2RkaPfMJdR04yMVyAIAQ+HzB23rvyV+p3N0VZfnW2i6V37ADUA1r7R5J812td6TooOb96C59Nu8NV0sCAJKULS/X+888oXd/PdNl+EvSCyd+ww5ADYwxOZI+l5Tict3sQXkaevu9anNWL5fLAgCSwPYV/9IHzz2jgk0bXS9dIKmHtfZg5RMUgNMwxjwvaVocFlbOZaN07tjr1KHvuTIRNmIAIKzKSku0Y+UKrXrtZX21ysmNfqpzj7X2dyc+QQE4DWNMB0mbJTWN13s0bdlK3fMuVqf+A9Qsq40yWmepaassRVKcbjwAAAKgrLRExXv3qnjfXhUV7NaOTz7Sto8+VMmh4ni+7VZJOdbaKtcRUgBqYYx5RNJDvucAAKCebrbWvnrykxSAWhhjmkvaIinL9ywAANTRakkX2GrCnoPPtbDWFkqaLKnc9ywAANTBQUmTqgt/iQIQFWvtQkkzfM8BAECUyiXdZK39vKYXUACiZK39jaSXfM8BAEAUZlhrF5zuBZwDUAfGmDRJSyUN8T0LAAA1mGWtnVLbiygAdWSMaSfpY0ldanstAAAJ9oGk4dbaktpeyCGAOrLW7pZ0iSruEggAQFD8VdLoaMJfogDUi7X2P5LyJL3jexYAACQ9KWnMsSvXokIBqKdj91MeK+lx37MAAEKrRNIUa+0PrbV1ulydcwAcMMZMUMWnLKX5ngUAEBp7JI2z1n5Yn19mB8ABa+0rknIlvet7FgBA0iuXNFvSgPqGv8QOgHPGmBGqOCxwnu9ZAABJZ7GkB6y1a2JdiB0Ax6y1iyUNkDRR0ja/0wAAksRqSZdba0e6CH+JHYC4OnbjoAmSxkkaLs4RAABEr1DSIkmvS3qrpnv61xcFIEGMMRmSRkq6WtJoSa39TgQACKB8SfMl/UXSsmiv6a8PCoAHxpgUVdxOOEdSpxMeHY99zZJkvA0IAIiXckm7JX0taeexr5WPz6y1qxI1CAUggIwxqZJSfc8BAHCu1Fpb5nsIiQIAAEAocRUAAAAhRAEAACCEKAAAAIQQBQAAgBCiAAAAEEIUAAAAQogCAABACFEAAAAIIQoAAAAhRAEAACCEKAAAAIQQBQAAgBCiAAAAEEIUAAAAQogCAABACP0fR5yaoWKTLlIAAAAASUVORK5CYII=;" parent="1" vertex="1">
          <mxGeometry x="87" y="-127.5" width="95" height="95" as="geometry" />
        </mxCell>
        <mxCell id="YSpOYTgw5d68OkFlZB_1-10" value="" style="shape=image;verticalLabelPosition=bottom;labelBackgroundColor=default;verticalAlign=top;aspect=fixed;imageAspect=0;image=data:image/png,iVBORw0KGgoAAAANSUhEUgAAAgAAAAIACAYAAAD0eNT6AAAABHNCSVQICAgIfAhkiAAAAAlwSFlzAAAOxAAADsQBlSsOGwAAABl0RVh0U29mdHdhcmUAd3d3Lmlua3NjYXBlLm9yZ5vuPBoAACAASURBVHic7N13fFRV+sfxz0xIpYQaktAh9K70Iii4ohQBEXUVG/beVrdYVndta1krdpdVd11XVHTFvjZ6FURQQHrvBEgIafP7Y8z+EBMySebOc+/M9/16+bKFe74G5Dxz7jnPARERERERERERERERERERERERERERERERERERERERERERERERERERERERERERERERERERERERERERERERERERERERERERERERERERERERERERERGRKOGzDuAS6UBzIAOoDzQA6gE1fvr3NYFqJslERNxjHxAADgO7j/hjK7AB2AgUmKWTCom1AqAp0B3o8tMfHYEWQJJlKBGRKFEEbAZWAEuApT/9eRlQaJhLShHtBUAn4CSg/09/NLKNIyISkw4Cc4GZwNfADIKrCGIo2gqAZOAU4DRgGNDENo6IiJTiIPA58CHwLsFXCBJh0VAAJBCc7McDowi+rxcREW8oBqYDbwBTgJ22cWKHlwuA1sBE4CIgzTiLiIhUXT7wCfAK8DbBPQXiEK8VAD7gVOAmgu/2vZZfRERCswZ4AniJ4CsDCTOvTKDxwATgZqCDcRYREYmcvcBzwGPAduMsUcXtBYAfOAO4D8gyziIiInZygRcJzgcqBMLAzQXA6cCDQFvrICIi4hr7gYeAR4BDxlk8zY0FQDvgUYLv+kVEREqzCfgD8CrB7oRSQW4qAFKAPwHXoba7IiISmi+Ay4FV1kG8Js46wE9OAKYBIwi+9xcREQlFC+BSgpvFZ6GjgyGzXgFIIfge53IXZBEREW9bAJxH8C4CKYflCkBngm0gh6PJX0REqi6TYIO4krsH5BisCoBrCbZ8zDQaX0REolM8wfbwHQl+yMy3jeNekf7knQRMIti+V0RExEkrCPaSWWYdxI0iWQA0Bv4DdIvgmCIiEtv2A78muNFcjhCpVwCdCV79qKY+IiISSYnAWcAeYJ5xFleJRAFwKvAR0CACY4mIiBzND5xG8Lr4T42zuIbTBcAo4C2Cx/1EREQs9SN4r8x7QLFxFnNOFgC/Bl4HEhwcQ0REpCK6EGw5/y4xXgQ4VQBcBEx28PkiIiKV1RHoRHCFOmaLACcm6DOAvzv0bBERkXBoD3QA3iZGLxMK9yQ9Cvg3wUYMIiIibtYByADetw5iIZwFQE+C38SkMD5TRETEScf/9OcvLUNYCFcB0AL4L1AnTM8TERGJlEHAOmCJcY6ICkcnwNrAHNTkR0REvCsf+BXwlXWQSPFX8cf7gJfR5C8iIt6WQHAPW2PrIJFS1QLgLmBMOIKIiIgYSyN4U22idZBIqMoegF8BzxP5GwVFRESc0pjgq+0PrYM4rbIFQH3gY6BWGLOIiIi4QU9gEbDSOoiTKvvp/R1gdDiDuEFCQgLNmregafMWNGrcmBo1a5KcnEJySjK1aqVaxxMRMXPoUC6Hcg+Rm5vDgf372bN7N2tW/8iGdevIzt5nHc8JOwi2Dd5uHcQplSkALiK48c/zmjRtRq8+fenZuw+dunYjIzMTv7+q2yJERGLLvr17WfnD9yyYN5d5c2bz3bdLKCoqso4VDu8Bp1uHcEpFC4B0YBlQ14EsEdGxcxdGnD6awUNOJj0jwzqOiEjUyc3NZe6smUx7712mf/k5+fn51pGq4mzgDesQTqhoAfBv4EwngjipTt26jB43npGnj6FFq1bWcUREYsb+/dl88sE03v73G3y/fJl1nMrYTrBl8B7rIOFWkQJgOB7rl5zWsCHnX3wJY8efTXJysnUcEZGYNvPrr3jx2UksXrTQOkpFvQhcah0i3EItABKApUAbB7OETZ26dbnquhsYNXYcCQkJ1nFEROQIC+fP47GHHuS7bz3TebeY/z8ZEDVCLQBuAR5yMkg4+Hw+Tht1Orf89g/UrqNrCURE3CoQCDDt3ak88uB97Nu71zpOKGYBA4iiq4NDKQDqAasBV5+Dy2rdhjv/fD+du3a1jiIiIiHau2cPjzxwL9Pee9c6SijGAW9ZhwiXUBoB3QUMcTpIVQw/fTR/ffpZGjWOmRbOIiJRITk5mZNOPoUmTZoyZ9YMCgoKrCMdS1fgGaJkFaC8FYAGwBqgRgSyVFhKSgp/uPtPnDYyao9piojEjHVr13DrDdexasUP1lGO5TzgH9YhwqG8AuBR4MZIBKmoBmlpTHppMlmtPbEvUUREQnDo0CFuveFaZnz1pXWUsqwC2gOe73R0rFcAdYDXCJ4AcJXGTZrwwt//QfOWLa2jiIhIGMXHxzPstOHs2LGdH5Yvt45TmnoEG+J5sqnBkY5VANwAnBapIKFq37ETL77yTxqmp1tHERERB/j8fgadOITc3By+XfyNdZzSNCPYG8DTyioAEoB/AjUjmKVcLbOyeOGV13TET0Qkyvl8PvoOGMi+vXtYtvRb6zhHawR8Aay3DlIVZRUAZxK89Mc1Gqan88LfX6N+/QbWUUREJEL6DTyB9WvXsHrVKusoR6sOTLEOURVlbQL8L3BSJIMcS+06dfjbP/5F85bq4y8iEmsKCgq45rKJzJs9yzrKkfKBJgSvDfak0u6+bQWcGOkgZfH7/dz70KOa/EVEYlR8fDwPPf4kmY1c1eslATjfOkRVlFYAXEzFbwl0zEWXXk6/AQOtY4iIiKFatVK5/5G/Uq1aNesoR7rYOkBVlLYH4DmgbqSDlKZz12786cGH8ftLq1NERCSWNEzPIDExkTmzZlpHKdEAeIfglcGec3QBcDzwW4sgR0tOTuaFV/5Bampt6ygiIuISXbsfx4J5c9m6ZbN1lBJ7gc+tQ1TG0R+tx5ukKMWlV15NRmYj6xgiIuIiPp+P3911t5teBbhm3qyoo9/1fw+0swhypGbNW/Dv96aRkOC6JoQRlb1vHxvWryM3J4f9+/eTnJxMckoKGZmZpGdk6tVIJeQfPsz69evYs2sXhw4dAoKrTfUaNKBp02YkJCYaJxSRUDz20IP8/aUXrGOUaA+4+gKD0hxZADQH1hrl+JnnJr9Krz59rWNE3O5dO/ns44+ZN2cW3yxcwN49e8r82oTERDp26kzPPn0ZPGQo7Tt0jGBS78jPz2fGV18ye8Z0Fsyby4b16yguLi71a/1+P02bNadH7z70GzCQAYMGEx8fH+HEIhKK3Nxcxpx6Mju2u+L1+03AX61DVNSRBcCVwCSrICV69OrNC69ExUVLIVswby6vvPwiM6d/TXFR5e6XaJXVmrMnnM+oMWfE/MoJwLatW3lt8su8P/UdsrP3VeoZqam1GTlmDOddOFGtp0Vc6J+vTOah+/5sHQPgE+AU6xAVdWQB8DYwxipIiWdenkyffgOsY0TEqhU/8MCf72bR/Plhe2Zaw4Zcf8utnDpiFD6fa05zRszBAweY9MRjTPnXP8N2r3h8fDxnnXseV1xzPdVruPJmbJGYdDgvj+FDBrN79y7rKHkEL9DLsw5SESWnAHzAEwRbG5rp1KUr1930G8sIEVFUVMQzTzzG7bfdwpZNm8L67JycHD7/9BO+WbSQPv36U7266U9pRM2aMZ0rLr6AebNnlbnMXxnFxcV8u3gx/5n6Nq3btqVxk6Zhe7aIVF61atUoKipkrn2HwGrAx8AG6yAVUbKLrDWQZhkE4IKJl1pHcNzePXu47ILzePHZSRRVcrk/FPNmz+LsMSNZOH+eY2O4RSAQYNITj3HtZRPZtdO5rpw7d+zg6ksu5rmnniAQCDg2joiEbvy5E0hJSbGOAeC5peuSFYCRwGjLIKm1a3PHn+4lLu5YNxR729Ytm7nsggl8vzwy10gfOnSIj6b9h5ZZWbRslRWRMSOtuKiIe27/Pf98ZXJEJuVAIMCCeXPZvn0bJww6EZ9OYoiYSkhIYN3aNaz8wXwTfh7wunWIiij53aunaQpg2PARUb3jeu+ePVx58YWsW7smouPm5+dz6w3X8fmnn0R03EgIBAL86a7befftyF/INXXKm9z5+9u0EiDiAiNGmX5+LdHDOkBFlRQAXUxTAMNHme8/dMzhvDyuuuRC1q+zOWVZXFTEH35zM98v+85kfKc88+TjTJ3yptn4096dyguTnjIbX0SCevbpS3pGhnWMdFzwKr0i/AQ3AHa2DNGocWM6d+1qGcFRD957Dz8sX26aIS/vEDdfe3Wlj8S5zbw5s3npuWesY/Dc008ye+YM6xgiMc3v9zP0lGHWMcB4Lq0oP9AUSLUM0TOKm/5M//IL3nnz39YxgOAehMf+8qB1jCrLOXiQP/zm5kr3TAin4uJi/vj728jJybGOIhLTevftbx0BoJN1gIrwA62sQ0Rr17/DeXn85d57rGP8zLtvT+Hbxd9Yx6iSSU885uhu/4rasX07zz31uHUMkZjWvUdPN9wPYD6fVoSfYAtgUz169bGO4Ih3pvybTRs3Wsf4mUAgwNOPPWodo9K2b9vGm6+7r1PkG/94zS0tSUViUvXq1enQyXwFvoV1gIrwA80sAzRp2owGaZ7aNxGSoqIi/v7Si9YxSjVvzmzPrgK88vKLYevwF075+fm8Nvkl6xgiMe34nr2sI3iuADBta9ayladWTEI2c/pXbNu6xTpGmd6Z4o59CRVRUFDAtPemWsco03tvv01+fr51DJGY1cJ+PvFUm1A/0MAyQPOW5j9hjvjgP+9ZRzimTz/6kPzDh61jVMj0L78ge597TzFkZ+9j9ozp1jFEYlbzFi2tI9QEkqxDhMoP1LcM4IKfsLArLi5m7qyZ1jGOKefgQZZ47DXArOlfW0co16wZ7s8oEq2atXDFCnxd6wCh8mMctkkz0y0Ijvhx5Qr27d1rHaNcC+bNtY5QIV6412D+3DnWEURiVq1aqdSuU8c6humH6orwY9wDoFaq6fCOWLVihXWEkPy40hs5IXikcsP6ddYxyrV+3TrPvVoRiSapqbXNI1gHCJUfSLQMUCMK71e3avlbUZG+l6AqNmxYH9Yrfp1SXFTExo2euhFUJKqk2F+BnmAdIFR+jMO64Ccr7Pbu2WMdISR7du+2jhCyvV7K6pGff5FoVN1+TjH9UF0R9gVAivlPVtjl5uZaRwhJrofa13rlewrBDZYiYqO6/aqypwoAERERiTF+wLRzSW6udz6FhiolJcU6Qki89PrFK99TcMUnEJGY5YIVOM/sArYvADy0DB2qOvXqWUcISV2P5ATvfE8B6tT1zDFgkajjgps5PVUAmIY9aF+thV2z5q5oRlEuLzVhatasOf64OOsY5fLHxdGkiae6gYpEFRd8qPRMP3A/kG0ZYH+26fCOaNO2rXWEkGS18UZOgITERJo2dX/TqOYtWpCQ6Jk9QCJRJzvbvF24ZyY1P2B6vmrDunWWwzsiq01bN3SjKlfP3t66hrlHr97WEcrlte+pSDTJzt7nhi6sO60DhMoP7LIM4KVmNKHy+Xz07T/QOsYx1ahZky7dulvHqJB+A0+wjlCuvgPcn1EkWq1f64ombJ5pBGJeAKyPwgIA4LSRo6wjHNPQU4aRkOCZhlUADBg0mNTa5m0+y5SaWpt+A9xd+IlEMxd0Yd2PxzYBmvYtXbN6teXwjuk7YCAZmY2sY5Rp7JlnWUeosPj4eEacPsY6RplGjT2D+Ph46xgiMWut/XziqT7gfmC9ZYCNG9azY/t2ywiOiIuL44KJl1rHKFWvvv3o3LWbdYxKmXDRRFeuXCQkJHDehRdbxxCJaS64MdR8CaIi/MA66xAL5kXnFapjxp1J46buOhLm9/u55oabrWNUWsP0dMb/+lzrGL9wzoQLSGvY0DqGSMzKyclh+XdLrWOssw5QEX7gR+sQ0XqHekJiIr+9/S7rGD9z+hnj6Ny1q3WMKrnimutpkJZmHeN/Gqanc9nV11rHEIlpi+bPo7Cw0DqG+TuIivADGwHTg5PzZs+2HN5R/U8YxBnjz7aOAUDjpk256dbfWceosuo1anDvQ4+6ojGQ3+/nj/c94KlWxSLRaO7sWdYRAMyXICrCDwQwDr1l8yaWLllsGcFRv/n97bTv0NE0Q1JSMn957Elq1KxpmiNcevbuw2VXXm0dgyuuvZ4+/QZYxxCJacXFxXz28YfWMcCDBQDAEtMUwPvvvmMdwTGJSUk8/eLfzFrv+uPiuO/hR82LkHC77OprGXPmeLPxx44/i0tdUISIxLp5c2axfds26xhb8FATIPj/AmChaQrg42nTyM/3TAvlCqtTty7PvDyZ5i1bRXTchMREHnrsSU4cenJEx40En8/H7X/8E6PHnRnxsceOP4s/3HVPxMcVkV96/92p1hEAFlgHqKiSl6g5gOkupsOH82jTth2tslpbxnBUjZo1OXX4SL77dglbNm92fLx69Rvw+DPPeaKDXmX5/H4GnTgEv9/PogXzCQQCjo7nj4vjyutu4MZbf4vP7y//B4iIo3IOHuRPd/yegoIC6yh/A2Zah6iIkgJgD3AFYHqR+aYNGxg7/mx8Pp9lDEclJSUxYtRo8PlY8s0iiouLHRmnb/8BTHrpb1FdUJXw+Xwc36s33bofx7w5sx27DrRhejqPPDmJUWPGOvJ8Eam41ya/zMyvv7KOAXAXwU31nnHkTPsWYP4726SXJtO3f2xsqlr94yr+8ud7mDcnfKcg0jMyueGWWzll+IiwPdNLcnJyeO6pJ3jjH6+G7ZVSQmIi55x3Ppddfa12+4u4SF7eIYYPGcye3aZ32gHkAbXxUBtg+HkBcAXwjFWQEsf17MlLr75uHSOiFi2YzysvvcCMr7+iqKioUs9o3aYt50y4gBGjx6gdLbBj+3Zem/wS773zNtn7KnfKtXadOowcPZYJF010Vd8BEQl6bfLfeOSBe61jAHwMDLMOUVFHFgDNcEkXo2df/ju9+/W3jhFxe3bv5r+ffMTc2bNZvHABu3eXfU9TUlIyHTp3olfvvpw49GTatGsfwaTeUVBQwKzpXzNrxtfMnzuH9evWUVxGkeWPi6NZ8+b07N2HfgMH0W/AQBVTIi6Vk5PD6GEns2vnDusoADcCj1mHqKijX7YvB8xnkqbNmvPmfz5wZc/3SMrO3semDRs4eOAABw4cIDk5meSUFDIyM0nPyIzqvRJOyc/PZ9OGDezatZNDubkAJKekUL9+Axo3bRrzv+ZEvOLRB+/j1b+9bB2jRDtghXWIijp6BnkAuM0iyNGuufFmJl5+pXUMERFxmVUrV3DOmFGVfmUaZiuBttYhKuPoc0z/NklRihefmcSWzZusY4iIiIsEAgEeuOePbpn8wUXzZkUdXQAsAlZZBDlaXt4hfnvT9W643EFERFxi8gvPsWjBfOsYR/qXdYDKKu02lTTAFZ1jdmzfTmFBQUxuCBQRkZ9bvGghd9z2G8cbflXAMuBu6xCVVVoBsJ5gV0BX7DBb8s0i2nXoaNZHX0RE7O3fn82VF1/I/v3Z1lGO9CDg2etsS+tlugb4PNJByhIIBLjrd7ex5scfraOIiIiB/Px8brn2arZucb6FegXkA69ah6iKspqZvxjRFOXIzt7HlRMvcNtPvoiIOKy4uJjbb72Z+XPnWEc52jt47Pa/o5VVALyNy3oa79i+nSsuusANLR9FRCRCHr7/Xj796EPrGKV5yjpAVZVVABQAT0cySCg2rF/HNZdNVBEgIhLlAoEAjzxwL6+/+nfrKKWZC8ywDlFVx9roVwvYAKRGKEvIGjdpwqSXJtOkaTPrKCIiEmZFRUX8+c7bmfrWm9ZRyjKO4AV6nlbaKYASh4H6QL8IZQnZ/v37+fSjj+jTrx/16jewjiMiImGSm5vLTVdfwacfu3LZH4Itf68DXHMWsbKOVQBAsDHQlUBiBLJUSG5uDv+Z+g5169ajfcdO1nFERKSK1q1ZzdWXXMySbxZZRzmW64BvrUOEQ3kFQC5QExgYgSwVVlRYyNdffM6mjRvoq5vbREQ86/2p73DDVZezffs26yjHsgy4hij49A+hNfupC/wI1HE4S5W0zMrirj/fT5du3a2jiIhIiHbv3sXD993LR9P+Yx0lFGMJHv+LCuWtAAAcIrgfYJjDWapk7549vPvWFDZu3ED343uQnJxsHUlERMpQXFzMtHencsNVl7NsqSdW1L8AfmcdIpxCbfcbT/CdRzsHs4RNau3aXHHt9YwdN56ERNdtXxARiWnzZs/isYf/wvfLvrOOEqoi4HhgiXWQcKpIv/9hgGu3ZZamfoM0zr94ImecdQ4pKSnWcUREYlYgEGD6V1/w4jOTWLpksXWcinqW4Ib4qFLRC39eB852IoiTUmvXZsy48Qw/fTRZrdtYxxERiRnZ+/bx0bT3eWfKG6z4/nvrOJWxFegI7LUOEm4VLQDSgOVAPQeyRES7Dh0YcfoYBg85mUaNG1vHERGJOgcPHGDOrJlMe28qM7/+ioKCAutIVXEmMMU6hBMqc+Xv+YArezNWVKPGjenZpy+9+vSlc5duZDZqhD8ulH2RIiJSYs/u3az44XsWzJ3D/LmzWfbddxQXFVnHCoepwBjrEE6pTAEAwRaIY8MZxA3i4+Np1KQJmZmNSa1dm2rV4khMTMIf5ychQZsJRSR2FRcXU1RUSHFxgMN5hzh48CBbNm9i86ZNHNi/3zqeE7YBXYEd1kGcUtkCoA6wGGgaxiwiIiJuEABGAtOsgziprNsAy7MXuIjg0QgREZFo8jhRPvlDaI2AyrIWKASGhCmLiIiItdnAecTAB9yq7nibQfB4RIcwZBEREbG0HRgK7LMOEgmV3QNwpFoEKyYVASIi4lWHCU7+M6yDREpl9wAcaT8wnOCOSREREa8JAJcSQ5M/hKcAAFgHjABywvQ8ERGRSLkDeNU6RKSFqwAAWAicBeSH8ZkiIiJOega41zqEhXDsATjaGODfQDUHni0iIhIurwEXAMXWQSw40ff2B2ADMApnCgwREZGqeguYQAwc9yuLU43vlwArgdMdHENERKQy/kXwrH+hdRBL4dwDcLR/AWcAeQ6OISIiUhEvAOcCnr6iMBycLAAA/kPwVUBU3hQhIiKe8gBwOTH6zv9okXpH3wl4H2gWofFERERKFAHXEtzxLz+J5Ca9TOBdoEcExxQRkdi2Dzgb+Ng6iNtEepd+IsGdl8MjPK6IiMSeXcAgYLl1EDdyeg/A0W4ChkV4TBERiU31gQeBGtZB3ChSKwDVgKcIbr4QERGJpG8JtqvfaB3ETSJRANQg2Bnw1AiMJSIiUpotBIuAb6yDuIXTBUBd4BPgeIfHERERKc9+gv1pPrMO4gZOFgANgE+Brg6OISIiUhH5wDiCfWpimlMFQEPgc6CDQ88XERGprDyCF9d9ZB3EkhOnAOoAH6LJX0RE3CmJYF+aEdZBLIV7BaAO8F+ge5ifKyIiEm55BNvVf2odxEI4C4BkgpN/3zA+U0RExEkHgIEEb7GNKeF6BeAHXkWTv4iIeEtN4AOgsXWQSAtXAfAwwaMVIiIiXlNyV0116yCRFI5XABOAV8LwHBEREUsfENwTUGQdJBLiqvjjuwFTgfgwZBEREbHUGigGvrIOEglVWQGoDywAmoUpi4iIiLUi4CTga+sgTqvKHoBn0OQvIiLRJQ74B8EPuVGtsisAlwHPhTOIm/h8PhKTkoiLq4Y/Lg6fz4ffH+mbk0VE3KM4EMDn81FcVERhQQGHD+dRXBTVr8rfA0YDAesgTqlMAdAGWESU7JasXrMWWe060iyrDQ0zMmmQkUm9tHTi4qq6PUJEJLodyN7Hru3b2LhuDZvXrWH96lVs2xxVN+5eDUyyDuGUihYAfuBLgk0TPMnn89GybXu69uxL646dSW/UBJ8vErcii4hEv317drNi6WKWL17E8sULKCgosI5UFfsJtrXfbB3ECRWd+a4g+O7fcxpmNqbHgEEc3+8E6tZvYB1HRCTq5eXmsmTBHOZP/4Ifv19mHaey3iJ4e2DUqUgB0AhYBqQ6lMURLdq04+RRZ9C+63H6pC8iYmTTurV89dF7LJozk6LCQus4FTUSeN86RLhVZEZ8DTjXqSDh1rpDJ4aNPZtW7XQpoYiIW+zZuYMP33qdBTO/JhDwzP669UBHIMc6SDiFWgD0BmZX4OvNpNapy+hzL6J7n/7WUUREpAxbN67n7VdfZtXypdZRQvVn4A7rEOEUyoTuA2bi8ot+/H4/J5wynFPPOJvEpGTrOCIiUo5AIMD86V/w7j//Ts7BA9ZxynMQaAnstA4SLqGcdRsL3Ox0kKqolVqbiTf9lv5DTqFaNXUlFhHxAp/PR6NmLeh9wkls2bieXdu3WUc6lgSgGvCxdZBwKW8FwAd8A3SNQJZKyWrfifOvvpFatetYRxERkUoKBAJ8/ck03nv9FTdvEswj2AsnKpodlLcCMB64JhJBKmPwqaM478rrSUpOsY4iIiJV4PP5aJ7VhpZt2vHdwvkUurN/QDUghSg5EXCsFQAfsAToHKEsIfP5fAw/89cMHXWGdRQREQmz7Vs28fxD97J753brKKUpILgXYJN1kKo61grAr3Dhu3+/38+ZF13OoGEjraOIiIgDatSsRfc+/Vm+eCE5B1y3OTAOOAR8bh2kqo5VADwNZEUqSCh8Ph/nXHYNfQYPtY4iIiIOSkxKpmvPvm4tAtoBTxK8OtizyioAOgCP4LJz/2MmXEz/k06xjiEiIhFQUgQsmT+HQ7mu6sFTHVhF8DW5Z5V1x+1luGzyP2XMeAadMsI6hoiIRFCt2nW4/De3k5ziugtor7cOUFWlrQAkAn8nuNPRFXqdcBJjJ1xsHUNERAzUqFmLpi2yWDh7upvaB2cAHwBbrINUVmkFwHhgQqSDlCWjcVMm3ngbcXHVrKOIiIiRemkN8fl8rFr+nXWUI+0FPrMOUVmlvQI4L+IpypCYlMSF1/2GhIRE6ygiImLs5NPH0bqDq06m/8o6QFUcXQDUAVyzxf7Miy6nYWYj6xgiIuICPp+P86683k37AToBnr185ugCYAzBfsfm2nXuRo/+g6xjiIiIi6TWqcvw8a65mb4a0NQ6RGUdXQCMBRGSXwAAIABJREFUNUlxlPj4eMZdeJl1DBERcaH+Q06heVYb6xglGlgHqKwjd9YlASdaBTnS0FFnUL9hunUME/uz97Fq2VLWrPyeHVs2sXPbVvIPHyY35yAJiUkkJCZSp1590jIb0axla1p36ER646b4fK46tekqBfn5rF31A6uWf8e2TRvYsXUzB7KzOZx3CAieNa6ZmkpaRiMymjQjq31HWrRuR3yCKxbDROQoPp+PsRMm8tc//tYNpwJCuVXXlY6cNX6FC645rF23Hn94ZBLx8bFzrW9hQQGL5sxg3tdfsPqHZRX+BV2/YTo9+g+i74knk1qnrkMpvWftyh+Y/cWnLJk/53+TfagSk5Lp2qsvfU8cSovW7RxKKCJV8dJfH2TpwrnWMY4jeGuu5xxZADwK3GgVpMSY8y5m0LDYaPhTXFTEzM8/5rP33iZ7754qP69atXh6Dx7CsDHjqZlaOwwJvWnNiuVMe/OfrP5heViel9W+I8PPPJcWbVQIiLjJ1k0b+MvvbrReBUgDdloGqKwjC4DFQFerIAA1atXizr8+S0JikmWMiNiw5kfeeHESmzesC/uzk1OqM/LsCfQ98eSYejWQm3OQqa/9jfkzvgz7bwg+n49eA09k9HkXuWkHskjMe+GR+1j2zQKr4bcCmVaDV1XJu4uaBFcAymoNHBEnjzqDNh27WEaIiC8//A+vTPprWD71l6awoIBl3yxg68b1tOvSnfj46H+XvWH1KiY9cDc/fr/MsTE2r1/L4jmzaNm2vV61iLhE9Zo1WTDzK6vh3wTesxq8qkoKgBOAC0yDxMUx4aqbSEiM3qY/xcXFTJn8PJ++O4VAcbHj423fspllixbQ6fheJCW7prNz2C1bNJ/nH7mXnAP7HR/rUG4O86d/SXqjJjRs1Njx8UTk2OqlNeSbOTPJOWhyY+DvgR8tBg6HkgLgXIxPAHTodjx9T3RND6KwCwQC/OO5J5j7VWSvkD54YD9LF8yjW+9+JCV7tl9FmZbMm83fnnyYosLCiI1ZXFzMkgVzyGjcVEWAiDGfz4fP52P5kkWRHnoXcA3g/Kc5h5Qs+XczTQH0GBDdTX+mvvY3Fs782mTs3Tu38+xf/kRebq7J+E5Ztfw7Xp30GMVFkb+Su7ioiFcn/dXRVw4iEpqeA0+02Pj8Z6Ag0oOGU0kBYNpcOSklhU7de1pGcNQ3c2by1cfvm2bYunE9rz77uPVu2bDZn72PV59+lMJCu///CgoKmPzkw47t5RCR0CQmJXHqGWdHcsgfgEmRHNAJfqA60MoyRJsOnaO26crundv514tPW8cAgu/KZ3/xqXWMKgsEArz69KPsz95nHYWD+7P5x3NPWMcQiXl9TzyZNp0isom8GLgWj3/6h2AB0A7j3f9Z7TtZDu+ot199mcN5edYx/uf9N17j4P5s6xhVsmDmV666EnTld9+yaPZ06xgiMS14UdAN1K3veGfeu/DwFcBH8gPNrUNEawGwctm3LFs03zrGz+TmHOSjt9+wjlFpBQUFvP/Ga9YxfuG911+hsMDzHwhEPK1Wam0uv/VOJ4/pPkHw3X9UMC8AqtesRUYTz16mdEyfTJ1iHaFUc778r2ffW8/7yp3Z9+3ZzbzpX1jHEIl5DTMbcd0d95LeuEk4H1tM8Mjf9eF8qDXzAqBRs+ZR2a1u2+aN/Pi9e5apj1RYWMCcL725gjXjs4+sI5Tp60+mWUcQEYK9AW7844MMGjaCuLgq39WzFhgC3F/1ZO7iB0yv3WuQ7tkuisc0f/qX1hGOaf6Mrzx3ImDj2tVs3bTBOkaZtm3ayOb1a61jiAjBkwFjzruY2x54jI7H9azMB83NwC1AB+DLcOdzg2pAfcsAaVFaAHy7wPyGqmPatX0r2zdvCvcymaOWLpxnHaFcSxfOo1GzFtYxROQnaRmNuPSm35G9dw+L581iybw5bFq7mvz8w7/42voN09m7a+crRUVFbwEfAfkRDxxB1YB6lgGicQUge+8edm7bYh2jXCuXL/VUAbBq+VLrCOVatXwpw8aeZR1DRI6SWqcug04ZwaBTRlBcXMz+fXs5uH8/gUAxCYmJ1KlXn4TEJIri/LfffM7ojdZ5I8G8AEitG32XqmxYs8o6Qkg2rvFOC+tAIMCmdWusY5Rr45rVBAKBqNzXIhIt/H4/tevWo3bdX05//uJAPSAmCgA/YNogPikp+vrT79ji/k//ANu3braOELI9u3ZQkO/+1bj8/MPs27PbOoaIVJKf4jrWGSLFD5i24EtMSrIc3hF79+yyjhCSfbu9kRNg327vTKp7d+20jiAilRQgEJ1taUthXgAkRGEBkO+izn/HknfokHWEkB3OU1YRiYBiX/TeSX8UP/9/JbCJatXiLYd3hOUFNRXhlZwAhRG87reqCtQRUMTD/NE3KZXBj/GFBvmHvfFpuSISEr2xqpHokZwACQneKcqj8bWWSMzwBX55PjBK+TE+5+imi3LCJTklxTpCSJKrV7eOELLk6t74ngIkp3jn+yoiRwmgAiBSvPQeOlT100ybK4asfkNv5ARo0NA7/SK88vMvIr/kiyP6JqUy+IGDlgHyDuVYDu+Iho0aW0cIScMMb+QESKlRgxq1Uq1jlKtWam1SatSwjiEileSn2DvHo6rID5ier9qzM/qOTDVt1doTmxtbtmtvHaFCWrZ1f96W7TpYRxCRKghUK/bOmeMqMi8AdnioGU2oEhISad66jXWMY/L7/bRu39k6RoW06djFOkK5vJBRRMpUkA7uu2/cIX7AdLkjGgsAgO69+1tHOKbWHTpTo1Yt6xgV0q1XX/xVv9rTMf64ODof38s6hohU3urx48cXWYeIFD9g2rd2x1ZvtM2tqO59BhCf4N6GUj0HDraOUGE1aqXSvkt36xhl6tD1OGqm1raOISKVFIAV1hkiyQ+stwywZeP6qOwFkFKjBr0HDbGOUara9eq7foWiLCcNH20doUxuziYioQjEXAGw1jJAUWEha1dF5/d8yIgxrlwF+NXp44irVs06RqW0ateB1h06Wcf4hbadunpik6KIHIsvOiejMpgXAACrlrn/nvfKqFOvPkNHjrWO8TNNWrSiz+Ch1jGq5IzzLyXORXsB4qpVY+z5E61jiEiVxd4KwEqMmwGtWv6d5fCOGjJiDI2aNreOAQTvXThr4lX4/X7rKFWS3rgJQ0edYR3jf351+jgaZnqnp4KIlKrocEJR9E5GpSi5C+AHyxAb1qzy1NW0FVEtPp4Lr7uFxKRk6yiMPu8iGjdvYR0jLE4ZM56s9vavAtp07MLJp4+zjiEiVeSDhb8dPz7bOkcklXwU/NYyRCAQYOGs6ZYRHNUgPZNLbvqtaXOg/kOHMWDoMLPxw83v93PR9b8x/eSd3qgJF157i+dXVEQEAvC5dYZIK/mda7FpCmD+zC+tIziqdYfOnHfl9Sab73oNPJFxF1wa8XGdVr1GTa647U7qN8yI+NgN0jO44tY71PZXJEr48X1hnSHSSgqAmaYpgG2bNrJx7WrrGI7q1rsfl93yB5KSI3ez3ZARYzjnsmvw+XwRGzOS6tSrzw133UeTFq0iNmbTVq25/s77qF2vfsTGFBFH5R8uTjGfByOtZCv1duBmwLSBfWFBAV169LaM4Lj6ael07dWXNSu+50D2PsfGSUxK5tzLr2PwqSOjdvIvkZCYRK+BJ5KXd4j1q1c5OlbPAYO4+PpbdeWvSHSZefOEkc9bh4i0kgKgGBgGNDPMwrbNG+nRfxAp1aN7WbV6jZr0GTyU6jVrsnbl9xQVFob1+R279+DSW/4QU+fS/XFxtO96HK3adWTD6lXkHNgf1ufXb5jBhKtv5KTho111BFFEqi4AD3389hvzrXNE2pG/kzUDBhvlAIKbAQsLCujYvYdljIjw+/00z2pDzwGDKS4qYsvG9RQXVa0FddtOXTn38msZOnJszH5Crdcgjb6Dh5Japy7bNm/kUG7Vrpuu16AhI8+ewNmXXEVaRqMwpRQRFyko8sdf/Mlbr+daB4m0I9eGewNzrIKUqFYtntsfeTrm3q/m5hzkmzkzWTx3JmtXrqCwsCCkH5feqAmdj+9FjwGDdBb9KMXFxaxYupgFs75mxdLFHNwf2qpAjVqptOvcjeP7n0DbTl21y18kigXg3RvPGxuTfbyPLAD8wFYgzSjL/3Tr3Y8Lr73FOoaZgvx81q9exY6tm9m1fSt5hw6Rm3OQhMQkkpKSqF2vAQ0zMmnSqjW1dPlMSAKBANs2bWDLxg3s3LaF/fv2cvinOygSE5OoVbsOaRmZZDRuSnrjplG/b0JEfhLwjbthwpi3rGNYOPp3uVeB8yyCHO2K2+6kXedu1jFERCR67fXvScq47rrTDlsHsXD02uYUkxSlmDL5BQoKQlsGFxERqbAAk2N18odfFgAfAa5ohbhr+1Y+nPK6dQwREYlGAQ4XFxc+Yh3D0tHnmYqA9kBXgyy/sO7HFTRu3lK7r0VEJLx8vHjj+eNi+lNmadubX414ijIEAgH++fyT7Nm10zqKiIhEj4K44mp/sQ5hrbQC4L+Aa3ry5h48yKtP/1X7AUREJCwC8M9rzx+11jqHtdIKgADwUqSDHMvaVT8w+cmHq9woR0REYlyAw4FA3J+tY7hBWT1NfwSuBSJ/dV0Zdm7dQva+vXTs3kNntEVEpFICft/9N503OibP/R+trALgINAC6B7BLOXatG4NBfn5tOnURUWAiIhUkG9DYXHKrz995zW9U6bsAgBgJXAVv2wWZGrtqh/Yu2tncCVALVpFRCRExX7/hFvOG/GddQ63KG9ynwacFokgFdX5+N6cf81NxMeb3mAsIiIulXcol13bt7Fz21bWrPj+++mffvABUPOnP6oB+4Hcn/68juDr7x+BTUaRI6q8AqAXwQuCXLUKUKJ567ZceM3NMXdxkIiI/FLOgf2s+O5bVq9Yzurvl7F9yyYCgUBlHrUTmA58DXwOLA1nTrcIZWJ/DxjpdJDKql6jJudecR0duh1vHUVERCKsID+fZd8sYP6ML/nh228ocua02PfAv4F/Enw9HhVCKQC6AYtC/FoTPp+PE087nVPHnaNXAiIiMeBA9j5m/vdjvvrofQ7l5kRy6JnAg8B/IjmoE0Kd1P8OnO9kkHCo3zCdM86/hPZdj7OOIiIiDti/by8fTHmd+TO+pKiw0DLKXOAPBJvneVKoBUAmsAKo4WCWsOnaqy+jz72IOtobICISFYqKipjx2Yd8OOVf5B3KtY5zpPcJ9s1ZZ5yjwo51DPBIBwgWC0MczBI22zdvYsZnH7Jr2xYyGjeleo2a1pFERKSSNq1byzMP/JEFM7+isNB1R/jbAJcBOcA84ywVUpH3+onAYqCdQ1kc4Y+L47g+AzjhlOE0bZllHUdERCpg1uef8PYrL7lx4i/Np8AEYLt1kFBUdGNfH4IbIDzZgadhZiO69xlAzwGDqZfW0DqOiIiUIT//MK8+/RhLF861jlJRm4AxwALrIOWpzM7+ScCV4Q4SST6fj8bNW9KmYxdad+hMy7btSEhMso4lIiJAbs5BXnjkPtau/ME6SmXlAOOAj6yDHEtlCoCawDdAqzBnMRNXrRoZjZuSlpFJWkYj0jIyqdugIUnJySQmJZOYlERKdU/sfxQR8bR9u3fxzIP3sH2L55vx5QMXEewd4EqVPdvfh2CXJNfcFigiEi4p1WtQMzWV9EZNadmuPZ2699RrwwjYu3sXT917B7t3eOIVeigCBO/UedY6SGmq0tznTuDucAUREXErn89Hq3YdOGn4aHUddUgUTv4lXFsEhHoMsDQzgL5E0asAEZGy7Nm1k4WzprP6h+W0bNOOFB0vDpsonvwh+EF7OMGTAa7aGFiVAiBA8LbA8UCd8MQREXG3PTt3MG/6l2Q0Ce4bkqqJ8sm/hCuLgKoUAACHCK4ETADUhF9EYkJhYQGL582iRs1a6i9SBTEy+ZdwXRFQ1QIAYCvBNsHjcPGFQSIi4RQIBPh+ySIaNmpMRuOm1nE8J8Ym/xKuKgLCUQAALAfygJPD9DwREU9Yvngh7bt0J7VOXesonhGjk38J1xQB4SoAINghMA3oGcZnioi4WnFREetWraDfSb/C59MiaHlifPIv4YoiIJwFAMCHQGNA9/GKSMw4uD+bug3SaNyshXUUV9Pk/zPmRUC4CwAIngzoCHRw4NkiIq60ae1q+g89lbg4J35b9T5N/qUyLQKc+JUaAKYSLABUBIhITMg7dIjMps20IbAUmvyPyawIcKpULQLeApoDXR0aQ0TEdbr37m8dwVU0+YfEpAhw8lrfIoIXITzt4BgiIq7x4/LvCAQC1jFcQ5N/hfgI3rZ7RaQGdLIAACgGrgFu+OmvRUSiVs7BA2Tv3WMdwxU0+VdKRIsApwuAEo8DZxHsHCgiErV2bd9mHcHawV3bti5++PZbsjX5V0rEioBIXuc7BfiR4AbBZhEcV0QkYvIO5VpHcEoxkE1wo/duYBewO+BjNfhWUBRYEecPrLzuvDP8wBdAqmFWryspAsDBWwQjWQCIiES9TlnNGdSji3UMJ5SsGPsAPwGfH1/A7/PhDxDwBXx+/xN/ebgx8A+gpV3MqOF4ERDJAmAE8C+gegTHFBGJqBo1o/qa4Dr/+7Mv0AoguOfRx/Ytm/ns4/fNgkUpR4uASO0BuAR4B03+IhLlGjeJvT4A27Zu4dLzz2XTxo3WUaKRY3sCIlEA3Au8gF43iEiUS61dm7SGDa1jRJQm/4hwpAhwclL2AY8ANzo4hoiIa/Tq0zemLgTS5B9RYX8d4FQB4AOeAq5y6PkiIq5z8rDTrCNEzNYtm7lkwrls2bzJOkqFDOvl59Q+fmqlwPwfArzycREHvXNA3UewuV4+8HI4HhZuPuAJgg2ARERiQv0GaUz77AsSEhOtozjOi5N/Qjy8dns8Zw7++Zvv9dsDDL+tgGVrPdXBsRi4lCoWAU7sAXgITf4iEmMuvOTSmJj8t23dwmUXnOe5yf/Nu385+QM0a+jji8fi6dzSU69u/MCLVHFPQLj/i+8B7gjzM0VEXK1lVhZvTH2fatWie6+zF9/5l0z+o/of+/Puzn0BhtxYwNI1nloJCBB81V6pPQHhvA1wIsFNfyIiMSMlJYWnnn+JBmlp1lEcFc2TP0D1JB/jBvv5aF4xO/ZGIFx4VOkWwXAVAMOAfxK5vgIiIub8fj8PPPo4x/fqbR3FUdE++ZeItSIgHAVAR+BjIDkMzxIR8YS4uDh+d9fdDB91unUUR8XK5F8iloqAqu4BqAnMBdpX8TkiIp6Rmlqbvzz2BL369rOO4iiv7vZ/6554RvSr2oL0jr3BPQHfee90wMXA30P54qp8h3zAq2jyF5EY0rf/AF6b8k7UT/5e3u1f1ckfIK2Oj8+9eTrgJWBMKF9clf+yWwge+RMRiWo+n48evXpz4aWX02/AQOs4jou1Zf9j8ejpgEPAycDMY31RZQuAbgSX/hMq+eNFRFzJ5/NRs2YtGqSl0TIri+N69OSEE08is1Fj62gREcvL/mXx6OuA3cBxwIayvqAyBUAywU0GHSoZynUSEhJo0649zVq0oFnz4B8ZmY1IrZ1KUlIyycnJ1KxVyzqmiIij9Mm/bB5dCZgLDAQKSvuXlSkAHgFuqkoia/64OLp1P44evftwfM9edO3WncSkJOtYIiJmNPmXz6NFwJ8po0FfRQuAnsBswttAKGJaZmVx8rDTGDVmbMws54mIlEfL/qHz4OuAYqAfwdWAn6lIARAPzAe6hilURFSrVo1TR4zi/ImXkNW6jXUcERFX0Sf/ivPgSsBCoBfBYuB/KlIA3Aw8HM5ETkpMSmLMGWdy/sRLyMhsZB1HRMR1NPlXngeLgIkcdXtgqAVAA2AVkBruRE44YfBJ/PbOuzTxi4iUQcv+Vbdjb4CTbvTMVcLbgRYEjwgCoTcCugcPTP6Nmzblyede5PFnn9fkLyJShlhv8hMuaXU8dZVwQ+CiI/9BKKnbA0tx+ca/s8+dwI23/jYm7uMWEaksLfuHn4deB6wF2gCFEFoB8C/gLCcTVUX16tW54557OWX4COsoIiKupmV/53jodcCZwBQovwDoBCzBpdf8tm7bjkefnETjpk2to4iIuJo++TvPIysB7wGnQ/kFwJvAOMfjVEL343vw+DPPq0OfiEg5NPlHjgeKgHwgA9hzrO9sC0K8USjSevXtx1MvvKzJX0SkHFu3bGbieb/23OT/1j3em/wBGtT28dmj8XRs4dqNgQnAaDj20v6NuHDj39BThvH0Cy+TkpJiHUVExNW029+GB04HnAJlvwKoDWwEakQsTgh69+vPE8++QEKCLiEUETkWLfvbc/HrgG1ARlnf5Qtw2eTfuWtXHn3qGU3+IiLl0OTvDg1q+/jvX125EpAOtCnrOz0xkknK0zIri6e07C8iUi6983cXF+8J6F3ad7s30DnSScqSnJzMQ489Ra1arm9EKCJiSu/83cmlewKySvuOX1TKPzNz+z1/pmVWlnUMERFX07K/u7nwdUDro7/rcbjo6N8Z48/mtJGnW8cQEXE1Lft7g8teB7Q6OsXJwCcWSY6WnpHJ2x98THJysnUUERHXUntf79m2J0DPywrYtNP0dMCPR3/3XdP177bb79TkLyJyDJr8vSm9ro8/TTRvs1Oz2hF/4wNccaNO/xMGMXjIUOsYZg4dOsR33y5h3ZrVbFi/jtzcXA7s309SUjLJKclkZDaieYuWdOzchQZpadZxPaG4uJgfV65g1cqVrF+7hj27d5ObmwtASkoKdevXp3mLFrRu05ZWrdvg98fub07iDZr8ve20PubfgxpHFgCdgUyrJCUSEhL4/V13W8eIuOzsfXz0/vt88tE0li5eTEFBQUg/rnnLVpw4ZCjDTx9Nq6zWDqf0lqKiImZN/5pp/3mXOTNnkL1vX0g/rnadOvTtP5DTRo6i74CBxMWZV+oiP6PJ3/tSksz3AcQdmeA24AGrJCXGnXUOf7j7T9YxImbrls1MfvF5pr41hfzDh6v0rF59+nLJlVfTs3efMKXzpsN5ebwz5d/8/aUX2bZ1S5WelZHZiAsmXsqYcWeSkJgYpoQilafJPzp8vqiYITeG9kHPIbuOLAA+BUzX3ePi4pj60Wc0btLEMkZEFBQU8Nrkl3n2qSeqPPEf7YTBJ3Hr7XfSqHHjsD7XC+bNnsX99/yRdWvXhPW5jZs04bbb72LAoMFhfa5IRWjyjw5FxTDkxgK+WlxsGWNtydpmHPAUwVuCzJw2chSjx51pGSEi1q1dw1UTL+KD/7xLUVFR2J+/ft1a3n3rTdIzM2ndtl3Yn+9G+YcP88iD93P/PX9k3769YX/+/v37+fD999i0cQP9Bg6kWrX4sI8hciya/KNDIABXPFLI21+bTv4A60sKgG7AtZZJAO65/yHqN2hgHcNRM7/+iisvvoBtW7c6Ok5BQQGff/oJOQcP0Lf/QHw+8/dNjtm9ayeXXXgeX/73M8fHWrXiB2ZNn87goUPVmloipqTD3+ZN3pr837w7npExdM6/PIEAXPNYIc+9F/4PfpUwu+Rnpr9pDKBVVmvadehgHcNRH38wjRuuuvx/u88j4bXJf+OO226huNi82nTE1i2bufDXZ/HD8uURG/P7Zd9x4Tnjq7y/QCQU6vAXHUom/0lTXTH5wxF9AI43jQGMHDPWOoKj5s6ayR233UJhYWHEx5723rvcf/ddER/Xafv27uWqSy5m04YNER9704YNXHbBBPbs3h3xsSV2aPKPDi6c/OGIAsD08h+/38+w4SMtIzhq3ZrV3HTNlSEf7XPClDde51+vvWI2frgVFRVx87VXsW7NarMMGzes57Ybr6PYgX0cImrvGx0CAbj8YddN/gCL/QQ3AJquvXfp1p2G6emWERyTf/gwt95wXUSX/cvy1788wPfLvrOOERbPPvk4ixbMt47BgnlzeW7SU9YxJMroVr/oUPLJ/4X3XTf5HwQW+YFWgGnP3Wg+t/7yC8+xauUK6xgA5Ofnc9fvf+vIyYNI+nHVSia/+Lx1jP956dlJrFrxg3UMiRJa9o8OLl32LzEDKCwpAEz16NXbOoIjtm7ZzN9eeM46xs+sWvED77z5hnWMKrn/nrtM9lKUpaioiIfvv9c6hkQBLftHBxcv+5f4HMAPNLdMER8fT5fu3S0jOOZvLzwf9iY/4fDSc8+Y7keoigXz5rJovv3S/9HmzZntilcS4l1a9o8OLl72LxEA3oRgAdDMMknb9h1ISoq+W/+y9+3j3benWMco1batW/nkg2nWMSrllZdftI5QpldeesE6gniUlv2jg8uX/UvMAtZBsAAw7bvbrEULy+Ed89G091356b/Ee1Pfto5QYbt372LW9K+tY5RpxtdfsXv3LusY4jFa9o8OHlj2L/Gvkr/wA/UNg9CseXQWAJ985O5P2AvmzvHcGfZPP/rQ1RsYi4qK+PyTj61jiIdo2T86eGDZv0Q28GrJ36gAcEBe3iGWLl5sHeOYiouLmT93jnWMCpk3e5Z1hHLNmzPbOoJ4hJb9o4NHlv1LPEWwCACCBUBduyxE5Y11S5cs8cQmu8ULF1hHqJDFixZaRyjXNwu89T0VG1r2jw4eWvYHyAOePPIf+IGaNlmCatQ0Hd4Ra1fbdaeriDWGXfQqat/evezds8c6Rrl2795FdvY+6xjiYlr2jw4eWvYv8Siw/ch/4Mf4CuCUlOqWwzti08b11hFCYtFDv7I2eiirl76vElla9o8OHlv2B9gM3H/0P3RBARB9V6oeOHDAOkJIDhzYbx0hZMoqXqfJPzp4cPIHuIVg+9+fqQbERz7L/0tOjr4eAIcOHbKOEJLcnBzrCCHL88j3FCA3x/7eB3GXrVs2c8mEcz237P/WPVr2P1LJO38PLfsDvAuU2v7VD5j+l+QX5FsO74iEeNNFlZAlJHgjJwQ7RnpFYmKidQRxEb3zjw4efOfN7O/NAAAUHklEQVQPsAmYSLD73y/4AdMZOMdDn0JDVb26N/Y1VK/hnQ2Y1avXsI4QshSP/PyL87TsHx08uuxfCJwDlNnwxbwA8NIydKgaZmRYRwhJRqY3cgKkeyhrRmYj6wjiApr8o4NHJ3+AGwne+lcmP2D6cjXnYPQVAM1btLSOEJKmHmrClJ6RSWJSknWMciUlJdMwPd06hhjT5B8dPDz530Ww6c8x+YG9zmcp266dOyyHd0SnLl2sI4SkU5eu1hFC5vf76dCxk3WMcnXs3Bmfz2cdQwypyU908FiTnyM9C9wTyhf6AdPbS9atXWs5vCPqN0jzxCpAr959rSNUSI/efawjlKunBzKKc7ThLzp4dMMfwMvA1aF+sZ9jbBCIhPVr11gO75gTh55sHeGYmjRtRotWraxjVMiJQ4ZaRyiX23/exTla9o8OHl72fxm4FCgO9Qf4Oao1YKSti9ICYMTpY6wjHNPI0WM8t1TdvmMnslq3sY5RplZZrWnTrr11DDGgyT86xNLkD8ECYJ0TaUK1auUKiosrlNkTWmZl0auPO5fYExITGT1uvHWMSjnr3POsI5Tp3Asuso4gBjT5R4dYm/whWACYNq7P3rePH1eusIzgmIlXXGUdoVRjx42nQVqadYxKGTV2HGkNG1rH+IX0jExGjHb3qo+Enyb/6BCLkz+4YAUA8Ny99KHq1acvg04aYh3jZ2rVSuWyq6+1jlFpCQkJXHfzrdYxfuGG39zmqW6FUnWa/KNDrE7+ECwAVlBGm8BIidYCAODWP9zhqs6AN/zmNurUrWsdo0pOGzmKXn37Wcf4n779B3DKacOtY0gEafKPDrE8+UOwANgHmP4qXjBvLofz8iwjOCazUWPu/PMvbmE0MfSUYYw505vv/o/k8/m47+FHqVe/gXUU6tarx933/8U6hkSQJv/oEOuTP0DcT38+CWhb1YdVVkF+Pllt2rp6h3dVtGrdmpyDB/h28WKzDK3btuOxp5/11AVAx5KSkkLHzl346IP3KSqy+R84ITGRx595Pmp/3covafKPDpr8g0oKgI7ACeF4YGXl5eVx2shRlhEc1bf/QDZt3MCqFZHf8Ni4SROen/watevUifjYTsps1IiWWVn895OPCQQi+xYrLi6OBx99nH4DTf+3kQjS5B8dNPn/v5ICIAX4dbgeWhmbN23kjLPOJiXFPe/Lw8nn83Hi0F+Rk3MwoisBrbJa89zkV125cz4cWrbKol3Hjnz52WcUFhZGZMykpGQeefJpBnugMZGEhyb/6KDJ/+dKCoDdwG8As84wgUCA1Np16H58D6sIjvP5fPQbcAK1a9dm/pzZji9dnzzsVB6b9JznN/2Vp1nzFvQfeAJzZ89k//79jo7VpGkznnrhJY7v2cvRccQ9NPlHB03+v3TkhL8cMG1jVrtOHT74/GuSk5MtY0TE98u+4547fs8Py5eH/dmpqbW5/pZbo2LDX0UcPHCARx64j3ffnhL2VwJ+v5/TzxjHzbf9nuo1aoT12eJemvyjgyb/0sUd8dedANOP33l5edStV4/OXbtZxoiIBmlp/2vIs2rFCg4ePFDlZyYkJnLm2b/mocefonuP6F1JKUtCYiKDhwyl74CBbN64MWwXsvTq24/7Hv4r4885N2o2UUr5NPlHB03+ZTtyBWA08I5TA4WqYXo6733yeUz9RltQUMAnH0zjvalvs2DunAq3Rm7WvAXDR53O2PFnueJonFssXbKYt//9Bp9+/CE5Bw9W6MfWqFmToacMY+yZZ9O5q3euTZbw0OQfHTT5H9uRBUANglcDJzo5YCiuv+VWLrzkMusYJvbs3s38uXNYvHABa9asZtOGDRw8cID9+7NJSUkhOaU6GZmZNGvRgk5dutKrd19aZmVZx3a1/MOHWbL4G+bPncPqVStZt3YNu3fuIjc3B4CUlOrUb9CAZi1akNWmLT1796FLt+4xVYTK/9PkHx00+Zfv6E1//yXYE8BUcnIyb3/wMekZmdZRRCSGaPKPDpr8QxN31N/XAk6LxMDHUlhYyLYtW/iV2quKSIRo8o8OmvxDd3QBsAG4kWCLYFNr16ymfYeONG/R0jqKiEQ5Tf7RQZN/xZR27v9z4MRIhihLrVqp/Gvqe2RkNrKOIiJRSpN/dNDkX3FHrwAAxAOu6Ml7+PBhli1dysjRY/H79QtdRMJLk3900ORfOaUVACuBa3HBaQCAbVu3kp+fT59+/a2jiEgU0eQfHTT5V15pBUA+0AI4PsJZyrR40UJq165Npy46jy0iVafJPzpo8q+a0goAgK2Aqw7iz545g9Zt2tKiVSvrKCLiYZr8o4Mm/6orqwDYApwMNI1glmMKBAJ8+flndD++B5mNGlvHEREP0uQfHTT5h0dZBQDAHuDsSAUJRVFREZ9++CFt27WnWfMW1nFExEM0+UcHTf7hc6wCYCVwFlA/QllCUlhYyMcffkBaWkPad+xoHUdEPECTf3TQ5B9e/9fevcbYUdZxHP92t5TSpRfotpRC6YXQ0gK9bQuUm4AIkiAqvMBrjMYXaAwSROMbwyXGxERjwPgGNcaEiFGhXKpFECh3SikpYLkUsdyUtLTSAm3BUMYXpyvb3W337Dkz88w8z/eTnJT0xe4/Zeb8/vM8/5nZXwOQATuBT5dUS9OyLOOBVfdywKhRLFzcw4gRgz3OQJIM/1gY/vnbXwMA8AwVXAXo9fijj/Dc+vWcctrpjB49OnQ5kirG8I+D4V+MoRqADHgLuKiEWlryyssbWbnido6fv8CXB0n6P8M/DoZ/cYZqAADW09gGmFJwLS3b8e67rLh1Oe+88zYLFvX4GlcpcYZ/HAz/YjXTAGTA34GvMvi7AyohyzKeXreO25ffwqGHHsrsY+eGLklSAIZ/HAz/4jXTAAC8BhwPzCuwllzs3LmD+/52N2see5TDpkzhyGmVeZSBpIIZ/nEw/MsxnCv66TS2A7oKqqUQx89fwNcv/SZnnHW2dwtIETP842D4l6fZFQCA7cB7wHkF1VKIzZs2ceefV3DbLX/iP1u3MmXqVCZMOCR0WZJyZPjHwfAv13AviTuBR4ATC6ilNPMXLuLMj5/DiScvY+684+joHE4fJKlKDP84GP7la2VN/ARgDRV5XXC7xo4bR8/SEzlhwUKmz5zJjJmzmHbUdO8kkGrA8I+D4R9Gq5vilwM/y7OQKuno7GTy5Ml0dR3MmK4xjOk6mLFjxzpDoLaMHn0Q4yeMZ/rMWZwwfyHHzJlDR4ch0CrDPw6GfzitJtoI4E7g3BxrkZIysXsS519wAZd84csceZR3qwyH4R8Hwz+sdi5pDwfW7vlTUos6Ozu58KKLueyK7zLhEAdUh2L4x8HwD6/dNe3TgHuBA3KoRUraxInd/OTnv2Dh4p7QpVSW4R8Hw78a2h1/f5XG7YHn51CLlLRdu3ay8o7bmTR5MsfO81XX/Rn+cTD8qyOP+99WA9OAxTn8LClpu3fv5v5772HqEUcwZ27lH7xZGsM/DoZ/teR1A/xK4CTg6Jx+npS0h+5fRc/SE5l6xBGhSwnO8I+D4V89ed7XNg54iMZzAiS1aeLEbpavvIux48aFLiUYwz8Ohn815fkIvPeBm4FPAd05/lwpSbt27STLMk4+5dTQpQRh+MfB8K+uIp5sMw14AJhRwM+WkjLqwAO57c67mXL41NCllMrwj4PhX21FPAT/beAvwGdpbAtIatHu3bvp6BjBstNOD11KaQz/OBj+1VfU0foicAbwz4J+vpSMlStWkGVZ6DJKYfjHwfCvhyKP2I00moDnCvwdUvS2vLmZF194PnQZhTP842D410fRR+2/gNOBBwv+PVLUnnn6qdAlFMrwj4PhXy9lHLlbgU8AN5Xwu6QovbJxY+gSCmP4x8Hwr5+yjt73gS8CV5HgP7LUru3btoUuoRCGfxwM/3oaWeLvyoBrgSeAGwFfeyY16al1Tz4M2XWh68jTww+u6v7e5ZdftXPHjsNC19Isw38gw7++ingOQDOOBn4PLAn0+6W6+RWNL6tYHAXcB8wKXUizDP+BDP96C3UkvwQsA64BanfkSAG8HrqAHBn+ETD86y/k0fwBcDVwDo1bBiXtWyy30xr+ETD841CFI3oVcBzwY1wNkAaTEcettIZ/BAz/eFTlqN4FfJ/GtsATgWuRqmYN8EboItpk+EfA8I9L1Y7sNcBJwNeo/xeelJffhi6gTYZ/BAz/+IS6C6AZY4ErgcvxpUJK1yZgJo1Vsjoy/CNg+MepiLcB5uW/NOYDfkljD3QRMCpkQVIAVwCrQxfRIsM/AoZ/vKq8AtDfROAbwLeA2jw4RGrDXcD51PMLzPCPgOEftzo1AL1GA18CLgV6AtciFWUDcDLwVuhCWmD4R8Dwj18dG4C+FtH4H/05fLSw4rGZxqu0XwhdSAsM/wgY/mmoewPQaxSNNw5eAlwIjA9bjtSydcBngFdCF9ICwz8Chn86YmkA+hoFnAp8cs9nfthypKbdSGNra0foQlpg+EfA8E9LjA1Af5NoNASnAafQaAi6glYk7e0R4AfAvaELaZHhHwHDPz0pNAD9ddD4oloAzN3z3zNo3Gs9FW81VDmeB/4K/A54PHAt7TD8I2D4pynFBmAoY2ncctgNTNjzdwfRuPtAase7wFYaE/7bAteSB8M/AoZ/umwAJLXC8I+A4Z82GwBJw2X4R8Dwlw2ApOEw/CNg+AtsACQ1z/CPgOGvXjYAkpph+EfA8FdfNgCShmL4R8DwV382AJL2x/CPgOGvwdgASNqXycCj1Cz8b772AC44xfDvlWVw6U8/4IY7DH/tzbNE0mBGA7dSs/D/4zWGf1+9V/6GvwbjmSJpMD8CloUuolku+w/ksr+G4haApP56gNVAZ+hCmuGy/0Au+6sZnjGS+vshNQp/l/335rK/muUKgKS+jgOeoQbfDS77D+Syv4ZjZOgCJFXKV6hJ+LvsvzeX/TVcnj2S+jovdAFDcdl/IJf91YrKd/qSSjMJ2ESFvxe88h/IK3+1yrNIUq8lVDz8vfLfm1f+aodnkqRePaEL2BcH/gZy4E/t8myS1KuSDYDhP5Dhrzx4RknqtSR0Af0Z/gMZ/spLZff7JJVqErA5dBF9Gf4DGf7Kk2eWJKjY1b/hP5Dhr7x5dkmCCu3/G/4DGf4qgmeYJKhIA2D4D2T4qyieZZKgAg2A4T+Q4a8iOQQoKfgAoOE/kOGvovkyIEnBr/6vv2yk4d+Hj/dVGTzjJAW/A+DcpX4V9fLxviqLZ52koCsAh46DGVPcjQSX/VUuGwBJQRuAntkdjDD/DX+VzgZAStskYFrIAnrmmP6Gv0KwAZDSFnz/v2d22l9Dhr9CSfvMkxT8DoCUVwAMf4VkAyClLWgDcMjYdAcADX+FZgMgpc0BwAAMf1WBDYCULgcAAzD8VRU2AFK6wg8AzknrK8jwV5WkdfZJ6iv8AODsdFYADH9VjQ2AlK7gA4AzD0+jATD8VUU2AFK6HAAsgeGvqrIBkNLkAGAJDH9VmQ2AlCYHAAtm+Kvq4j4DJe2LA4AFMvxVBzYAUpocACyI4a+6sAGQ0hS0AVgc6QCg4a86sQGQ0tNN6AHACJf/DX/VjQ2AlJ6loQuIbQDQ8FcdxXUWSmpG8AHAJRHdAmj4q65sAKT0OACYE8NfdWYDIKXHAcAcGP6qOxsAKS0OAObA8FcMbACktDgA2CbDX7Go95koabiCDwDW+R0Ahr9iYgMgpSVoAzC+C2bVdADQ8FdsbACktIR9BfCceg4AGv6KkQ2AlI7gA4B1vP/f8FesbACkdDgAOEyGv2JWr7NRUjscABwGw1+xswGQ0uEAYJMMf6XABkBKhwOATTD8lQobACkNwQcA67D8b/grJSNDFyCpFEtCF9Azu3rXG//ekrF2Q8baFz5k7YaMx5/L2PxWFrqs4TL81RIbACkN4RuAwCsA/cN+9bMZb26rXdj3Z/irZTYAUhqCDwAePbW8BiDSsO/P8FdbbACkNEQ7AJhI2Pdn+KttNgBS/KIZAOwf9o+tz9iyPfqw78/wVy5sAKT4hd//b2EA0LAflOGv3NgASPEL3wAMsQJg2DfF8FeubACk+FVqANCwb4nhL0katpeBLNRn+mEjsu9c0pmdubAjG9cVro4af36ND22TJA1TN+EDzI/hrwrywJLiFnz/Xy1z2V+FsgGQ4hb8FcBqieGvwtkASHGzAagfw1+S1LZXCb+P7cc9f0lSiRwArNfH8FepPNikeDkAWB8u+6t0NgBSvNz/rwfDX0HYAEjxsgGoPsNfkpQ7BwCr/XHPX5KUOwcAq/0x/BWcB6AUJwcAq8tlf1WCDYAUJ/f/q8nwV2XYAEhxsgGoHsNfklS4Vwi/z+3HPX9JUokcAKzWx/BXJXlQSvFx+b86XPZXZdkASPGZF7oAAXA9hr8qbGToAiTlblboAhL3DvBt4DehC5H2xwZAis+40AUkKgNupRH+rwWuRRqSDYAUH7f2yrUVuAW4DlgfuBapaTYAUny2hi4gYhnwErB2z+cBYA3u86uGbACk+LwauoBI9A/7tcCTwLaQRUl5sQGQ4vNE6AJq6g32DvtHgS1BK5IKNCJ0AZJyN5rGNsCY0IVU1GBX9muB7SGLksrmCoAUn/eA24DPhy6kIryylwbhCoAUp7OBe0IXUbIM+Acf7dV7ZS/thw2AFK9VwMdCF1Egr+ylNtgASPFaQiMU677V1/fKvu80vlf2kiTtw9WEfxvecD4fAhuAm4ArgbOA8Xn/o0hyBUCKXQfwB+Di0IXsg8v4UiA2AFL8DgKWA+cFrMFlfEmSAhgF3IDL+JIkJeli4HUMe0mSktMFXAG8jGEvJcsZACldI4BTgXOBZcAxwEQaDcI2Gi8VepaPHqrjnr0Ukf8B/XK4tW5mg+AAAAAASUVORK5CYII=;" parent="1" vertex="1">
          <mxGeometry x="320" y="-125.5" width="93" height="93" as="geometry" />
        </mxCell>
        <mxCell id="YSpOYTgw5d68OkFlZB_1-11" value="" style="shape=flexArrow;endArrow=classic;html=1;rounded=0;strokeColor=none;fillColor=#4A909B;" parent="1" edge="1">
          <mxGeometry width="50" height="50" relative="1" as="geometry">
            <mxPoint x="216" y="-80.38" as="sourcePoint" />
            <mxPoint x="284" y="-80.38" as="targetPoint" />
          </mxGeometry>
        </mxCell>
        <mxCell id="YSpOYTgw5d68OkFlZB_1-12" value="&lt;font color=&quot;#4a909b&quot;&gt;&lt;b style=&quot;&quot;&gt;&lt;font style=&quot;font-size: 16px;&quot;&gt;读数据库&lt;/font&gt;&lt;/b&gt;&lt;br&gt;&lt;/font&gt;" style="text;html=1;strokeColor=none;fillColor=none;align=center;verticalAlign=middle;whiteSpace=wrap;rounded=0;" parent="1" vertex="1">
          <mxGeometry x="196" y="-68" width="109" height="30" as="geometry" />
        </mxCell>
        <mxCell id="U1f2Pb_fqsOATKheziqM-1" value="&lt;font color=&quot;#4a909b&quot; style=&quot;font-size: 14px;&quot;&gt;公众号：小白debug&lt;/font&gt;" style="text;html=1;strokeColor=none;fillColor=none;align=center;verticalAlign=middle;whiteSpace=wrap;rounded=0;fontSize=16;textOpacity=50;" vertex="1" parent="1">
          <mxGeometry x="178" y="-137" width="136" height="30" as="geometry" />
        </mxCell>
      </root>
    </mxGraphModel>
  </diagram>
</mxfile>
